<svg xmlns="http://www.w3.org/2000/svg" xmlns:xlink="http://www.w3.org/1999/xlink" viewBox="0 0 200 200"><defs><style>.cls-1{fill:none;}.cls-2{clip-path:url(#clip-path);}.cls-3{fill:#af814f;}.cls-4{fill:#f9b700;}.cls-5{fill:#edb044;}.cls-6{fill:#bd8c56;}.cls-7{fill:#ac8138;}.cls-8{fill:#b0ab55;}.cls-9{fill:#db994e;}.cls-10{fill:#e6a87b;}.cls-11{fill:#d66b36;}.cls-12{fill:#c55c2d;}.cls-13{fill:#ce6130;}.cls-14{fill:#d87a47;}.cls-15{fill:url(#新增圖樣);}</style><clipPath id="clip-path"><rect class="cls-1" width="115.96" height="115.96"/></clipPath><pattern id="新增圖樣" data-name="新增圖樣" width="115.96" height="115.96" patternUnits="userSpaceOnUse" viewBox="0 0 115.96 115.96"><rect class="cls-1" width="115.96" height="115.96"/><g class="cls-2"><path class="cls-3" d="M52.09,64.21c-.72.57-8.56,10.84-10.43,14.8S37.71,84.46,38,85s1.51,1.67,1.66.9,2.35-5.32,3.87-8.48S52.14,64.93,52.76,64,52.09,64.21,52.09,64.21Z"/><path class="cls-4" d="M50.88,29.72a15.32,15.32,0,0,1-.72,3.08c-.21.3-.12-.62-.32-.32s-.17,1.18-.45,1.75-.16-.55-.35-.13-.33,2-.53,2.34-.16-.87-.27-.4a10.21,10.21,0,0,1-.53,2c-.2.3-.73-.5-.64,0a5,5,0,0,1,0,2.18l-.28,1.66c-.16.23-.49-.3-.67.12s-.2,1.77-.36,2.31c-.1.32-.7,0-.79.3-.19.75.31,2.14.27,3,0,.24-.63-.06-.63.18,0,1.86.36,3.65,1.06,4.48a7.65,7.65,0,0,1,1.7,4.77,52.65,52.65,0,0,0-5.78-5.92c-.43-.35-1.72-1.91-2.11-2.15s.17.78-.3.44a21.28,21.28,0,0,0-2.35-1.55c-.42-.19.4.82,0,.62-.29-.13-.6-.27-.92-.43S34,46.41,33.62,46.21s.1.69-.16.54S32.24,45.41,32,45.24c-.08-.05.11.8-.11.59-.47-.46-.8-1.12-1-1.24-.64-.51-.13,1-.39.56a2.81,2.81,0,0,0-1.73-1.27,5.43,5.43,0,0,0,.75,1.92c.31.41-.66,0-.5.61A12.36,12.36,0,0,0,30,47.89c.19.28-.53-.09-.5,0a5,5,0,0,0,1.09,1.55c.11.16-.42.23-.26.47S32,51.76,32.16,52s-.79-.16-.52.22A24.19,24.19,0,0,0,33.48,54c.38.54-.71.28-.28.81.2.26,1.9,1.33,2.11,1.58a9.63,9.63,0,0,0,4.55,3.1,47.14,47.14,0,0,1,5.91,2.14,6,6,0,0,0-4.62.39c-.31.15-1.89.26-2.23.45s.33.36,0,.49-1.26-.41-1.49-.33.3.25.1.32-1.15,0-1.41.14.39.49.12.56a7.36,7.36,0,0,1-1,0c-.25.09.16.29-.07.25a2.19,2.19,0,0,0-1.38.28,2.6,2.6,0,0,0,1.18.58c.33.06-.35.27,0,.49a11.62,11.62,0,0,0,1.33.47c.32.13-.33.47,0,.51A14.4,14.4,0,0,1,38,66.4c.18,0-.06.42.13.49s1.14-.1,1.36,0-.51.28-.19.4,1.47.15,1.89.28a6.47,6.47,0,0,0,4.28.17c2.77-1.18,4.26-1.84,5.34-1.52S50.7,70,50.7,70a18.76,18.76,0,0,0-.07,2.65c0,.28-.26.89-.22,1.16s.39.15.43.37a14.77,14.77,0,0,0,.33,1.58c0,.18.38-.24.45,0A14.06,14.06,0,0,0,52,78c.17.24.3,0,.52.23s.43.6.55.72.13-.48.32-.32c.36.32,1.07,2.28,1.21,2.09.6-.78-.09-1.8.21-2.35.07-.11.31.22.38.1s.28-1.11.37-1.27c.16-.31.57.5.67.16s-.37-1.2-.43-1.73c0-.2.43-.08.39-.27-.06-.37-.1-.79-.13-1.22,0-.21.41.21.41,0s-.46-1.06-.48-1.27a4.32,4.32,0,0,0-.51-2.12c-.68-.91,2.06,4.25,5.17,5.1.27.07,1.43,1.46,1.73,1.61.47.24.26-2,.82-1.18a7.92,7.92,0,0,0,2.81,2.23c.4.1-.15-1.09.28-1,.58.2,1.74,1.44,2.32,1.6C69,79.26,68,77,68.71,78a14.8,14.8,0,0,0,3.48,1.82c.5.07-.57-1,.25-.81.3.07,2,1.43,2.33,1.5s-.47-1.18,0-1.09,1.76,1.24,2.15,1.27-.44-1.31-.12-1.34,1.82,1,2.1.86c.57-.23-1.15-1.19-1.62-1.88-.17-.25,1.56.1,1.29-.18s-2.4-.77-2.73-1.07,1.45-.38,1.1-.65-2.43-.52-2.67-.69c-.41-.29.84-.31.54-.61A19.29,19.29,0,0,0,72.17,74c-.2-.09.4-.62,0-.85a6.35,6.35,0,0,0-2.29-.61c-1.07,0,1.11-.47.72-.73a10.85,10.85,0,0,0-3.45-1.14c-1.3-.31,1.45-.47,1.08-.77s-1.84-1.45-2.18-1.72a11.73,11.73,0,0,0-2.69-1.44,25,25,0,0,0-5.34-2.5c-.79-.11,10.69.88,14.64-.74a12.17,12.17,0,0,0,3-1.25c.43-.42-.6-1.18-.17-1.57.16-.14,1.77,0,2.34-.23.31-.13,0-.67.28-.78s.93.22,1,.16c.51-.5-.69-.61-.2-1,.22-.18,1.93-.47,2.65-.89.4-.24-1.13-1-.12-.77.34.1,1.19-.42,1.51-.63s-.56-.34-.1-.64,2.16-.44,2.55-.69-.62-.46-.31-.66c1.36-.88,2.06-1.25,2.06-1.25a18.84,18.84,0,0,0-3.08.28c-.29,0-.07-.65-.36-.61s-1.93,1-2.2,1c-.48.06.45-.66,0-.62s-1.36.68-1.74.69c-.91,0-.43-.54-.91-.67-.3-.09-2.17.82-2.71.81-.38,0,1.17-1.45.71-1.43a3,3,0,0,0-1.17.45c-.25.22-.15-.56-.38-.37s-2.12,1.54-2.2,1.55c-.62,0-.37-1-1-.92s-1.71.86-2.27,1a15,15,0,0,0-5.75,2.07c-2.37,1.85-3.11,2-3.11,2s2.91-2.7,5.5-5.54c.64-.7,1.16-1.26,1.71-1.94.28-.35.64-.83.88-1.15s-1-.14-.79-.44,2.64-2.36,2.77-2.65c.22-.52-1.4.37-1.12-.44.1-.3,1.75-1.92,1.85-2.23s-.74.28-.65,0c.16-.56.76-1.14.89-1.67,0-.09-.44.11-.26-.32s.91-1.4.93-1.5c.16-.65-.54.41-.39-.21.07-.26.69-1.49.76-1.74.14-.58-.58.29-.44-.2.09-.29,1-1.42,1.06-1.66.15-.42-.51-.24-.37-.49s1-1,1.14-1.29-.67.31-.59,0c.29-1.26.66-3,.66-3s-.91,1-2,2c-.13.13-.14-.4-.29-.27s-.69,1.2-1,1.47-.21-.25-.46,0-.59,1.25-.81,1.44c-.38.34,0-.68-.37-.35-.13.1-1,1.57-1.15,1.67-.39.33-.2-.65-.57-.36S67.14,38.61,66.8,39c-.2.23-.1-.61-.21-.53-.39.27-1.06,1.75-1.37,1.92s-.31-.31-.6-.12a4.46,4.46,0,0,0-1.17,1c-.29.51-.37-.57-.74-.24s-.72,1.68-1,1.93-.31.66-.58.92,0-1.66-.65-.94c-.32.37-1,1.93-1.28,2.28a14.06,14.06,0,0,0-2.62,3.86C55.76,51.56,54.7,55,54.7,55s1-8.55-.23-11.35c-.45-1-1-2.83-1.61-4.53-.08-.23.07-.79,0-1s-.37,0-.42-.19c-.21-.63,0-2.22-.14-2.83,0-.15-.25.4-.29.26s0-1.37,0-1.58c-.11-.38-.36.17-.45-.17s.15-1.27.09-1.53-.43.06-.47-.17Z"/><path class="cls-5" d="M78.24,59.71c-.24.11,0,.65-.27.78-.57.24-2.18.09-2.35.23-.42.39.61,1.15.17,1.57a11.84,11.84,0,0,1-3,1.25c-3.94,1.62-15.42.63-14.63.74a25,25,0,0,1,5.34,2.5,11.73,11.73,0,0,1,2.69,1.44c.33.27-.2,2.18,1.1,2.48.38.09,1.66,1.86,2.72,1.88.65,0,2.06,1.37,2.26,1.46.47.22-3.17,4.34-3.46,4-.71-.92-1.8-.21-2.39-.41-.42-.14-2.46-.33-3.08-1.28s-2.29-.36-2.56-.43c-3.1-.85-5.84-6-5.16-5.1a4.32,4.32,0,0,1,.51,2.12c0,.21.46,1.06.47,1.27s-.41-.2-.4,0a10.87,10.87,0,0,0,.13,1.22c0,.2-.41.07-.39.27a3.37,3.37,0,0,1-.25,1.57c-.08.16-.68,1.06-.74,1.17a1,1,0,0,1-1.43.26c-.18-.16-.15.48-.31.32s-.44-.6-.55-.72-.35,0-.52-.23a14.06,14.06,0,0,1-.42-2.26c-.07-.21-.4.21-.45,0A14.77,14.77,0,0,1,51,74.23c0-.22-.4-.13-.43-.36s.25-.89.22-1.17a17.37,17.37,0,0,1,.07-2.65s1.22-3.5.14-3.81-2.57.34-5.34,1.51a6.4,6.4,0,0,1-4.28-.16c-.43-.13-1.49-.13-1.89-.28s.48-.28.19-.4-1.16.09-1.36,0,0-.44-.14-.49a14,14,0,0,0-1.75-.18c-.34,0,.31-.38,0-.51s-1.28-2-1-2.07a7.36,7.36,0,0,0,1,0c.27-.07-.25-.52-.12-.56s1.14,0,1.41-.14-.3-.24-.11-.32,1.26.42,1.49.33-.38-.27,0-.49,1.91-.3,2.23-.45a6,6,0,0,1,4.61-.39A47.14,47.14,0,0,0,40,59.5a9.65,9.65,0,0,1-4.54-3.1c-.21-.25,3-7.53,3.87-6.92.47.34,2,1.36,2.42,1.71a52.65,52.65,0,0,1,5.78,5.92,7.72,7.72,0,0,0-1.7-4.77c-.71-.83-1.06-2.62-1.06-4.48,0-.24.61.06.62-.18,0-.88-.45-2.27-.26-3,.09-.34.69,0,.78-.3.17-.54.19-1.9.37-2.31s.51.11.67-.12l.28-1.66c.23-.49,5.7-1.38,5.78-1.15.59,1.7,1.16,3.5,1.6,4.53,1.22,2.79.24,11.35.24,11.35s1.05-3.4,1.89-5.86a13.67,13.67,0,0,1,2.62-3.85c.32-.36,1-1.92,1.28-2.29.63-.72.4,1.18.65.94s.31-.67.58-.92a10.92,10.92,0,0,1,2.57-1.49,5,5,0,0,1,3.28.85c.61.65.48,1.43,1,1.84a7.42,7.42,0,0,1,1.31,2.1c-.27.81,1.34-.08,1.12.44-.12.29-2.55,2.3-2.77,2.65s1,.1.8.44-.61.8-.89,1.15c-.55.67-1.06,1.24-1.7,1.94-2.59,2.84-5.5,5.54-5.5,5.54s.74-.13,3.1-2A15.15,15.15,0,0,1,70,54.43c.55-.11,1.7-.89,2.27-1s.38,1,1,.92c.07,0,2-1.36,2.19-1.55s.13.59.38.37.09,1,.46,1c0,0,2.36,1.38,2.38,2.26A28.55,28.55,0,0,1,78.24,59.71Z"/><path class="cls-6" d="M51.37,64.33c-.18-.12-1.16.51-1.28.75s.84,1.09,1.08,1.2a4.66,4.66,0,0,0,2.34-.5c.64-.37-.39-1.54-.74-1.67A3.63,3.63,0,0,0,51.37,64.33Z"/><path class="cls-7" d="M52.88,65.8c.09.54,7.18,5.86,7.78,6.15s7.16,3.16,6.4,2.78-4.59-2.1-5.2-2.59-2.53-2-2.83-2.23a29.14,29.14,0,0,0-2.79-1.72c-1.17-.57-2.74-2.93-3.89-3.34C52,64.72,52.88,65.8,52.88,65.8Z"/><path class="cls-6" d="M52.88,65.8c.09.54,7.18,5.86,7.78,6.15s7.16,3.16,6.4,2.78-4.59-2.1-5.2-2.59-2.53-2-2.83-2.23a29.14,29.14,0,0,0-2.79-1.72c-1.17-.57-2.74-2.93-3.89-3.34C52,64.72,52.88,65.8,52.88,65.8Z"/><path class="cls-8" d="M52.13,65.07c1-.6,11.45-3.67,13.77-4.41s8.28-2.67,9.21-2.87-3.59,2-4.06,1.89-4.32,2.26-5.14,1.88-2.91.63-3.55,1a27.26,27.26,0,0,1-5.18,1.62,10,10,0,0,0-1.89.86c-.52.24,0,1.09-.26,1C54.3,65.89,52.13,65.07,52.13,65.07Z"/><path class="cls-6" d="M52.13,65.07c1-.6,11.45-3.67,13.77-4.41s8.28-2.67,9.21-2.87-3.59,2-4.06,1.89-4.32,2.26-5.14,1.88-2.91.63-3.55,1a27.26,27.26,0,0,1-5.18,1.62,10,10,0,0,0-1.89.86c-.52.24,0,1.09-.26,1C54.3,65.89,52.13,65.07,52.13,65.07Z"/><path class="cls-9" d="M55.56,60.88c-1.46,1.71-3.38,4.18-3.38,4.18a51.28,51.28,0,0,0,4.11-4.55c3.42-4.38,9.47-13.36,10.48-15.13a44.75,44.75,0,0,1,2.79-4,6.69,6.69,0,0,1,.79-1s-5.4,6.69-6,7.7-3.31,4.77-4.4,6.51A58.84,58.84,0,0,1,55.56,60.88Z"/><path class="cls-9" d="M52.42,64.79s-.52-5.46-.42-6.7c.08-1.08-.21-12.18-.63-13.69A50.9,50.9,0,0,1,51,36.24a27.63,27.63,0,0,0-.26-3.55s0,8.53.07,10.26.55,2.34.55,4.07.19,9.15.31,10.54.3,7.27.47,7.5S52.42,64.79,52.42,64.79Z"/><path class="cls-9" d="M51.94,65.55a57,57,0,0,0-5.06-5.25c-2.35-2.07-11.36-9-12.31-10.15s-3.41-3.87-3.41-3.87,3.93,3.91,5.42,5,7.91,6.45,9.87,8c2.2,1.78,4.36,4.76,4.92,5.15.81.56,1.24-.23,1.05.29A2.11,2.11,0,0,1,51.94,65.55Z"/><path class="cls-9" d="M51.62,64.84c-.58,0-8.17-.6-9.67-.4a38.83,38.83,0,0,1-5.35-.11,5,5,0,0,1-1.09,0c-.21-.09,2,.27,2.77.4s5.91-.13,7.45,0,4.65.17,5.08.25.66.46,1,.27S51.62,64.84,51.62,64.84Z"/><path class="cls-9" d="M51.82,65.25c-.06-.17,1.4,7,1.34,7.33-.14.83.3,4.83.26,5.12s.1-1.72.16-2.66a44.05,44.05,0,0,0-.42-5.44,38.93,38.93,0,0,0-1-4.69C51.94,64.84,51.82,65.25,51.82,65.25Z"/><path class="cls-9" d="M52.42,64.79c.62.27,8.43,5.78,9.83,6.75s7.87,4,9.16,4.82c1.08.63-3.49-1.55-6.39-3a73.27,73.27,0,0,1-8.34-5.23c-.9-.73-4.85-2.27-4.86-2.87S52.42,64.79,52.42,64.79Z"/><path class="cls-9" d="M52.6,65.08c.49.23,10.69-3.51,12.19-4.1s10.21-3,11-3.41,7.88-3.24,7.28-3-5.45,2.09-6.5,2.35-8.47,2.82-9.79,3-7.73,2.69-9.85,3.4A44.61,44.61,0,0,0,52.6,65.08Z"/><path class="cls-3" d="M121.5,11.57c.32,1.23,8.94,17,12.92,21.64s4.13,6,5,5.86,3-1,2.08-1.6a55.46,55.46,0,0,1-7.08-7.17c-3.15-3.71-12-18.39-12.88-19.74S121.5,11.57,121.5,11.57Z"/><path class="cls-10" d="M121.94,12c.44.9,9,14.92,11.22,17.63s7.25,9.07,7.4,8.39-5.33-5.43-7.2-8.52-9.31-14.27-9.92-15.21Z"/><path class="cls-11" d="M130.33-37.14a20.82,20.82,0,0,0,.34,4.39c.21.45.28-.83.5-.38s0,1.67.25,2.51.34-.72.5-.11,0,2.89.24,3.34.41-1.16.45-.5a15.58,15.58,0,0,0,.3,2.9c.22.45,1.12-.54.89.12a7,7,0,0,0-.48,3l0,2.34c.18.35.75-.31.9.3s-.1,2.49,0,3.26c.07.45,1,.1,1,.58.1,1.07-.87,2.88-1,4.09,0,.33.87.06.82.39-.4,2.55-1.26,5-2.41,5.94a10.63,10.63,0,0,0-3.35,6.19,73.83,73.83,0,0,1,9.2-6.91c.67-.4,2.78-2.27,3.36-2.52.43-.17-.39,1,.33.68a30.13,30.13,0,0,1,3.55-1.64c.62-.17-.72,1-.07.86l1.35-.39c.6-.18,2.93-1.91,3.51-2.1.4-.14-.28.93.11.77s2-1.58,2.34-1.75c.12-.06-.33,1.07,0,.83.75-.54,1.35-1.37,1.59-1.51,1-.55,0,1.41.42.87A3.9,3.9,0,0,1,157.7-13a7.71,7.71,0,0,1-1.44,2.49c-.51.5.9.17.55.94a17,17,0,0,1-1.61,1.83c-.33.35.75,0,.68.13-.52,1-1.25,1.31-1.83,1.91-.18.19.53.4.26.7s-2.66,2.16-3,2.49,1.12,0,.67.42c-.8.81-2.56,1.62-2.9,2-.64.66.92.53.22,1.18-.34.31-2.91,1.42-3.25,1.72a13.41,13.41,0,0,1-6.91,3.3A65,65,0,0,0,130.6,7.8a8.28,8.28,0,0,1,6.27,1.51c.4.28,2.55.76,3,1.1s-.53.43-.11.67,1.81-.31,2.12-.14-.47.28-.22.41,1.58.31,1.92.49c.17.09-.64.6-.29.76a11.72,11.72,0,0,0,1.4.24c.33.17-.28.37,0,.36a3,3,0,0,1,1.85.67,3.74,3.74,0,0,1-1.75.56c-.47,0,.42.44-.07.67a13.43,13.43,0,0,1-1.93.36c-.47.12.35.73-.11.7a21.34,21.34,0,0,0-2.46-.12c-.26,0,0,.59-.28.65s-1.55-.39-1.87-.32.64.5.17.59-2.05-.11-2.66,0c-2.1.31-4.29.33-5.92-.67-3.56-2.21-5.47-3.43-7-3.22s-.61,5.27-.61,5.27a25,25,0,0,1-.47,3.66c-.1.38.17,1.27.06,1.65s-.57.12-.67.41a19.45,19.45,0,0,1-.79,2.1c-.11.24-.47-.41-.61-.13-.37.77-.61,2.54-1.06,3-.28.3-.41-.06-.76.21-.18.15-.71.74-.92.88s-.07-.69-.36-.51c-.56.36-2,2.91-2.11,2.62-.66-1.2.51-2.46.2-3.28-.06-.16-.46.24-.53,0s-.16-1.59-.24-1.81c-.16-.46-.9.55-1,.07s.77-1.57,1-2.29c.07-.28-.58-.19-.49-.45a12.13,12.13,0,0,0,.44-1.66c.07-.28-.61.2-.55-.09s.86-1.36.92-1.65a6.12,6.12,0,0,1,1.15-2.81c1.13-1.1-3.73,5.41-8.18,5.92-.39,0-2.28,1.71-2.72,1.85-.7.22.07-2.86-.89-1.79a11.1,11.1,0,0,1-4.33,2.46c-.57.06.43-1.46-.18-1.36-.85.15-2.71,1.6-3.54,1.71-.53.07,1.34-2.77.17-1.65A20.12,20.12,0,0,1,90.4,27.2c-.71,0,1-1.24-.18-1.16-.42,0-3.06,1.53-3.52,1.56s.31-.8-.33-.78-2.1.62-2.64.58.13-1-.3-1.15-2,.27-2.31.06c-.74-.43.46-1.09,1.25-1.94.29-.31-.79-.49-.36-.82s2.47-.87,3-1.2-.94-.51-.4-.81c.36-.21,3.45-.2,3.81-.39.63-.31-1.08-.6-.61-.95a26.64,26.64,0,0,1,3.84-.94c.3-.08-.42-.94.12-1.18a9,9,0,0,1,3.29-.35c1.47.19-1.43-.88-.84-1.16,1.56-.77,4.44-.8,5-.85,1.86-.13-1.89-1-1.32-1.27l3.35-1.91a16.68,16.68,0,0,1,4-1.41,34.77,34.77,0,0,1,7.87-2.31c1.11,0-14.9-1.05-20-4.11C91.94,4,90,3.19,89.33,2.35c-.51-.67,1.08-1.49.57-2.11-.2-.24-2.44-.38-3.17-.83-.41-.24.09-.92-.22-1.13s-1.34.11-1.41,0c-.59-.8,1.08-.69.48-1.38-.25-.29-2.54-1-3.44-1.78-.51-.41,1.76-1.21.31-1-.48.06-1.53-.83-1.93-1.18s.85-.36.27-.86S77.91-9,77.43-9.43s.13-.78-.26-1.12l-3-2.64s2.46.89,5.38,1.79c.39.12.24-.88.63-.77s2.45,1.74,2.82,1.84c.64.18-.49-1,.13-.85S84.9-10,85.42-9.86c1.25.24.71-.65,1.4-.74.44-.06,2.81,1.6,3.56,1.69.52.07-1.31-2.25-.68-2.12a4.58,4.58,0,0,1,1.52.87c.3.35.32-.74.6-.42S94.41-8,94.51-8c.84.2.72-1.3,1.58-1S98.26-7.49,99-7.23c3.21,1.16,6.11,2.63,7.48,4.08,2.85,3,3.85,3.38,3.85,3.38s-3.43-4.34-6.39-8.8c-.73-1.1-1.32-2-1.94-3-.31-.53-.71-1.27-1-1.77s1.38,0,1.19-.43S99.07-17.61,99-18c-.19-.77,1.84.81,1.63-.38-.07-.42-2-3-2.08-3.45s1,.54.91.1c-.11-.81-.81-1.73-.87-2.49,0-.13.57.24.42-.38a23.67,23.67,0,0,0-1-2.27c-.07-.92.66.68.59-.2,0-.38-.64-2.2-.67-2.56-.08-.82.73.52.64-.18-.06-.42-1-2.15-1.11-2.51-.11-.61.76-.21.62-.59s-1.22-1.63-1.29-2,.84.56.81.12c-.13-1.8-.29-4.24-.29-4.24s1,1.57,2.28,3.17c.16.2.28-.53.45-.31.32.41.7,1.79,1.06,2.23s.35-.3.63.06.55,1.84.81,2.16c.45.55.13-.94.59-.4.15.17,1.07,2.37,1.22,2.54.47.53.42-.85.86-.37.27.28.86,1.63,1.24,2.25.23.37.27-.82.42-.68.46.46,1.08,2.63,1.47,2.93s.49-.36.84,0a6,6,0,0,1,1.4,1.64c.29.77.62-.7,1.08-.17s.62,2.45,1,2.86.28,1,.59,1.39.38-2.28,1.1-1.16c.36.59.91,2.86,1.27,3.42a19.34,19.34,0,0,1,2.79,5.85c.63,3.57,1.35,8.47,1.35,8.47s.47-12,2.74-15.57c.83-1.31,2-3.67,3.17-5.89.16-.29.07-1.09.22-1.39s.53,0,.62-.17c.42-.83.42-3.06.8-3.87.09-.2.26.61.35.41s.24-1.88.37-2.15c.23-.51.45.3.64-.15s.07-1.77.21-2.12.58.17.69-.13Z"/><path class="cls-12" d="M122.31,10.37c.28-.13,1.49.94,1.6,1.3s-.76.71-1.12.82.3.75-.5.11-2.36-2.73-1.86-2.83A5,5,0,0,1,122.31,10.37Z"/><path class="cls-13" d="M121.94,11.73c.12-.75,10-8.12,10.85-8.53S145-3.36,147.87-5.16a52.89,52.89,0,0,0,6.91-5.71c1.15-1-5.93,5.58-6.3,6s-5.71,3.75-6.77,4.27-6.4,2.9-7.25,3.58-3.53,2.83-4,3.1a43.15,43.15,0,0,1-3.89,2.38c-1.62.79-3.83,4.07-5.42,4.64C120.71,13.23,121.94,11.73,121.94,11.73Z"/><path class="cls-14" d="M117.28,4.73c1.65,2.66,3.77,6.46,3.77,6.46a68.15,68.15,0,0,1-4.69-7.12c-3.82-6.83-10.22-20.45-11.21-23a60.37,60.37,0,0,0-3-6.15,9.78,9.78,0,0,0-.87-1.51s6,10.35,6.59,11.86,3.54,7.27,4.68,9.9A82.28,82.28,0,0,0,117.28,4.73Z"/><path class="cls-13" d="M121.27,11.92c-.1-1.62,2.91-16.49,3.5-19.82s2.08-11.93,2.43-13.21.16,5.73-.29,6.23,0,6.78-1,7.55-1.1,4-1,5.05a38.67,38.67,0,0,1-1.36,7.44A13.93,13.93,0,0,0,123.34,8c0,.8,1.37.65,1.07,1C123.68,9.78,121.27,11.92,121.27,11.92Z"/><path class="cls-14" d="M120.78,10.77s1.86-7.4,2-9.13,3-17,3.77-18.69,2.06-9.71,2.18-11.16A39.07,39.07,0,0,1,129.84-33S128-21.3,127.56-18.93s-1.26,3.1-1.61,5.48S123.75-.9,123.28,1s-2,9.94-2.23,10.21S120.78,10.77,120.78,10.77Z"/><path class="cls-14" d="M121.27,11.92a76.51,76.51,0,0,1,8.07-6.14c3.59-2.3,17.47-9.87,19.1-11.35s5.5-4.61,5.5-4.61-6.23,4.54-8.52,5.8-12.26,7.2-15.28,8.94c-3.41,2-7,5.62-7.86,6-1.23.6-1.66-.57-1.5.18A2.87,2.87,0,0,0,121.27,11.92Z"/><path class="cls-14" d="M121.86,11c.81.09,11.36.9,13.39,1.51a52.4,52.4,0,0,0,7.38,1,6.36,6.36,0,0,0,1.5.24c.31-.08-2.86-.06-3.89,0S132,12.23,129.86,12.1s-6.31-.74-6.92-.72-1,.49-1.45.15S121.86,11,121.86,11Z"/><path class="cls-14" d="M121.49,11.53c-.22.39-3.4,8.64-3.39,9.81s-1.43,6.57-1.44,7,.22-2.39.35-3.7a59.37,59.37,0,0,1,1.72-7.4c.46-1.33,2.18-6.18,2.44-6.23S121.49,11.53,121.49,11.53Z"/><path class="cls-14" d="M120.78,10.77c-.92.24-12.83,6.17-15,7.2s-11.8,4-13.62,4.69c-1.62.65-10.59,2.38-8,2.36,2,0,13.11-3.75,17.41-5.15a99,99,0,0,0,12.57-5.42c1.4-.82,7.16-2.1,7.29-2.92S120.78,10.77,120.78,10.77Z"/><path class="cls-14" d="M120.47,11.13c-.73.21-14.1-7.11-16-8.24s-13.27-6.27-14.32-7S79.66-10,78.22-10.64,75.8-12.51,76.57-12s11.22,6.3,12.6,6.87S100.23.5,102,1s10.06,5.34,12.82,6.77S120.47,11.13,120.47,11.13Z"/><path class="cls-3" d="M5.54,11.57c.32,1.23,8.94,17,12.92,21.64s4.13,6,5,5.86,3-1,2.08-1.6a55.46,55.46,0,0,1-7.08-7.17c-3.15-3.71-12-18.39-12.88-19.74S5.54,11.57,5.54,11.57Z"/><path class="cls-10" d="M6,12c.43.9,9,14.92,11.21,17.63s7.25,9.07,7.4,8.39-5.33-5.43-7.2-8.52S8.09,15.25,7.48,14.31Z"/><path class="cls-11" d="M14.37-37.14a21.5,21.5,0,0,0,.34,4.39c.22.45.29-.83.5-.38s0,1.67.25,2.51.35-.72.5-.11,0,2.89.25,3.34.4-1.16.45-.5A14,14,0,0,0,17-25c.21.45,1.12-.54.88.12a7,7,0,0,0-.47,3l0,2.34c.17.35.74-.31.9.3s-.11,2.49,0,3.26c.06.45,1,.1,1,.58.1,1.07-.87,2.88-1,4.09,0,.33.87.06.82.39-.4,2.55-1.26,5-2.41,5.94a10.63,10.63,0,0,0-3.35,6.19,73.44,73.44,0,0,1,9.21-6.91c.67-.4,2.77-2.27,3.35-2.52.43-.17-.38,1,.33.68a30.13,30.13,0,0,1,3.55-1.64c.62-.17-.72,1-.07.86l1.36-.39c.59-.18,2.92-1.91,3.5-2.1.4-.14-.28.93.11.77s2-1.58,2.34-1.75c.12-.06-.33,1.07,0,.83.75-.54,1.35-1.37,1.59-1.51,1-.55,0,1.41.42.87A3.92,3.92,0,0,1,41.74-13a7.8,7.8,0,0,1-1.43,2.49c-.52.5.89.17.55.94a18.68,18.68,0,0,1-1.62,1.83c-.33.35.75,0,.68.13-.52,1-1.25,1.31-1.83,1.91-.18.19.53.4.26.7s-2.65,2.16-3,2.49,1.12,0,.67.42c-.8.81-2.56,1.62-2.9,2-.64.66.92.53.22,1.18-.33.31-2.91,1.42-3.25,1.72a13.42,13.42,0,0,1-6.9,3.3A65,65,0,0,0,14.64,7.8a8.28,8.28,0,0,1,6.27,1.51c.4.28,2.55.76,3,1.1s-.54.43-.12.67,1.81-.31,2.12-.14-.47.28-.22.41,1.58.31,1.92.49c.17.09-.64.6-.29.76a11.72,11.72,0,0,0,1.4.24c.33.17-.28.37,0,.36a3,3,0,0,1,1.85.67,3.74,3.74,0,0,1-1.75.56c-.47,0,.43.44-.07.67a13.29,13.29,0,0,1-1.92.36c-.48.12.35.73-.12.7A21.34,21.34,0,0,0,24.27,16c-.25,0,0,.59-.28.65s-1.55-.39-1.87-.32.64.5.17.59-2-.11-2.66,0c-2.1.31-4.29.33-5.92-.67-3.56-2.21-5.46-3.43-7-3.22s-.62,5.27-.62,5.27A23.69,23.69,0,0,1,5.6,22c-.1.38.18,1.27.07,1.65s-.58.12-.67.41a21.59,21.59,0,0,1-.8,2.1c-.1.24-.47-.41-.61-.13-.37.77-.6,2.54-1,3-.29.3-.42-.06-.76.21-.19.15-.72.74-.93.88S.78,29.42.5,29.6c-.57.36-2,2.91-2.12,2.62-.65-1.2.51-2.46.21-3.28-.07-.16-.47.24-.54,0s-.16-1.59-.24-1.81c-.16-.46-.89.55-1,.07s.77-1.57,1-2.29c.07-.28-.57-.19-.48-.45a13.81,13.81,0,0,0,.43-1.66c.07-.28-.6.2-.55-.09s.86-1.36.92-1.65A6,6,0,0,1-.71,18.3c1.12-1.1-3.73,5.41-8.19,5.92-.39,0-2.28,1.71-2.72,1.85-.7.22.07-2.86-.89-1.79a11.1,11.1,0,0,1-4.33,2.46c-.57.06.43-1.46-.18-1.36-.85.15-2.71,1.6-3.54,1.71-.53.07,1.34-2.77.17-1.65a20,20,0,0,1-5.17,1.76c-.71,0,1-1.24-.18-1.16-.42,0-3.05,1.53-3.52,1.56s.31-.8-.33-.78-2.09.62-2.63.58.12-1-.31-1.15-2,.27-2.31.06c-.74-.43.47-1.09,1.26-1.94.28-.31-.8-.49-.37-.82s2.47-.87,3-1.2-.94-.51-.39-.81c.35-.21,3.44-.2,3.81-.39.62-.31-1.09-.6-.61-.95a26,26,0,0,1,3.84-.94c.29-.08-.43-.94.11-1.18a9,9,0,0,1,3.29-.35c1.48.19-1.42-.88-.84-1.16,1.56-.77,4.44-.8,5-.85,1.86-.13-1.89-1-1.32-1.27l3.36-1.91a16.51,16.51,0,0,1,4-1.41A34.77,34.77,0,0,1-2.83,8.82c1.11,0-14.89-1.05-20-4.11C-24,4-26,3.19-26.63,2.35c-.5-.67,1.08-1.49.57-2.11-.19-.24-2.44-.38-3.17-.83-.4-.24.09-.92-.22-1.13s-1.34.11-1.41,0c-.59-.8,1.08-.69.49-1.38-.26-.29-2.55-1-3.45-1.78-.51-.41,1.76-1.21.32-1-.49.06-1.54-.83-1.94-1.18s.85-.36.27-.86S-38-9-38.52-9.43s.12-.78-.27-1.12l-3-2.64s2.46.89,5.39,1.79c.38.12.23-.88.62-.77s2.45,1.74,2.82,1.84c.64.18-.49-1,.13-.85s1.72,1.21,2.24,1.32c1.25.24.71-.65,1.4-.74.44-.06,2.82,1.6,3.56,1.69.52.07-1.31-2.25-.68-2.12a4.39,4.39,0,0,1,1.52.87c.3.35.32-.74.6-.42S-21.55-8-21.45-8c.84.2.72-1.3,1.58-1S-17.7-7.49-17-7.23c3.22,1.16,6.11,2.63,7.48,4.08C-6.62-.12-5.63.23-5.63.23S-9.06-4.11-12-8.57c-.73-1.1-1.32-2-1.93-3-.31-.53-.71-1.27-1-1.77s1.37,0,1.18-.43S-16.88-17.61-17-18c-.19-.77,1.84.81,1.64-.38-.08-.42-2-3-2.09-3.45s1,.54.91.1c-.1-.81-.81-1.73-.87-2.49,0-.13.57.24.42-.38s-.95-2.13-1-2.27c-.08-.92.65.68.58-.2,0-.38-.64-2.2-.67-2.56-.08-.82.73.52.64-.18-.06-.42-1-2.15-1.11-2.51-.11-.61.76-.21.62-.59s-1.22-1.63-1.29-2,.84.56.81.12c-.13-1.8-.28-4.24-.28-4.24s1,1.57,2.27,3.17c.16.2.28-.53.45-.31.32.41.7,1.79,1.06,2.23s.35-.3.64.06.54,1.84.8,2.16c.45.55.13-.94.59-.4.15.17,1.08,2.37,1.22,2.54.47.53.42-.85.87-.37.26.28.85,1.63,1.24,2.25.23.37.26-.82.41-.68.47.46,1.08,2.63,1.47,2.93s.49-.36.84,0a5.86,5.86,0,0,1,1.4,1.64c.29.77.63-.7,1.08-.17s.63,2.45.95,2.86.29,1,.59,1.39.39-2.28,1.1-1.16c.37.59.92,2.86,1.27,3.42A19.1,19.1,0,0,1,2.4-11.7C3-8.13,3.75-3.23,3.75-3.23s.47-12,2.74-15.57c.83-1.31,2-3.67,3.17-5.89.16-.29.07-1.09.23-1.39s.52,0,.61-.17c.42-.83.43-3.06.8-3.87.1-.2.26.61.35.41s.25-1.88.37-2.15c.23-.51.46.3.65-.15s.06-1.77.2-2.12.59.17.69-.13Z"/><path class="cls-12" d="M6.35,10.37c.28-.13,1.5.94,1.6,1.3s-.76.71-1.12.82.3.75-.5.11S4,9.87,4.47,9.77A5,5,0,0,1,6.35,10.37Z"/><path class="cls-13" d="M6,11.73C6.1,11,16,3.61,16.83,3.2S29.06-3.36,31.92-5.16a53.36,53.36,0,0,0,6.9-5.71c1.15-1-5.93,5.58-6.29,6S26.81-1.16,25.75-.64s-6.4,2.9-7.24,3.58S15,5.77,14.55,6a43.15,43.15,0,0,1-3.89,2.38C9,9.21,6.83,12.49,5.24,13.06,4.76,13.23,6,11.73,6,11.73Z"/><path class="cls-14" d="M1.32,4.73C3,7.39,5.09,11.19,5.09,11.19A69.81,69.81,0,0,1,.4,4.07C-3.42-2.76-9.82-16.38-10.81-19a58.28,58.28,0,0,0-3-6.15,9.78,9.78,0,0,0-.87-1.51s6,10.35,6.6,11.86,3.53,7.27,4.67,9.9A83.94,83.94,0,0,0,1.32,4.73Z"/><path class="cls-13" d="M5.31,11.92C5.22,10.3,8.22-4.57,8.81-7.9s2.08-11.93,2.43-13.21.16,5.73-.29,6.23,0,6.78-1,7.55-1.1,4-1,5.05A37.91,37.91,0,0,1,7.55,5.16,13.93,13.93,0,0,0,7.38,8c0,.8,1.37.65,1.08,1C7.72,9.78,5.31,11.92,5.31,11.92Z"/><path class="cls-14" d="M4.82,10.77s1.86-7.4,2-9.13,3-17,3.77-18.69,2.06-9.71,2.19-11.16A37.73,37.73,0,0,1,13.88-33s-1.82,11.73-2.27,14.1-1.26,3.1-1.62,5.48S7.79-.9,7.32,1,5.38,10.92,5.09,11.19,4.82,10.77,4.82,10.77Z"/><path class="cls-14" d="M5.31,11.92a75.93,75.93,0,0,1,8.08-6.14C17,3.48,30.85-4.09,32.48-5.57S38-10.18,38-10.18s-6.22,4.54-8.52,5.8S17.2,2.82,14.18,4.56c-3.41,2-7,5.62-7.85,6-1.24.6-1.67-.57-1.51.18A2.87,2.87,0,0,0,5.31,11.92Z"/><path class="cls-14" d="M5.9,11c.81.09,11.37.9,13.39,1.51a52.4,52.4,0,0,0,7.38,1,6.45,6.45,0,0,0,1.5.24c.31-.08-2.86-.06-3.89,0S16,12.23,13.9,12.1,7.59,11.36,7,11.38s-1,.49-1.44.15S5.9,11,5.9,11Z"/><path class="cls-14" d="M5.54,11.53c-.23.39-3.41,8.64-3.4,9.81S.71,27.91.7,28.33s.22-2.39.35-3.7a63.15,63.15,0,0,1,1.72-7.4C3.23,15.9,5,11.05,5.21,11S5.54,11.53,5.54,11.53Z"/><path class="cls-14" d="M4.82,10.77C3.9,11-8,16.94-10.14,18s-11.79,4-13.62,4.69c-1.62.65-10.59,2.38-8,2.36,2,0,13.11-3.75,17.41-5.15A99.3,99.3,0,0,0-1.75,14.45c1.4-.82,7.15-2.1,7.29-2.92S4.82,10.77,4.82,10.77Z"/><path class="cls-14" d="M4.51,11.13c-.72.21-14.1-7.11-16-8.24s-13.28-6.27-14.33-7S-36.29-10-37.73-10.64s-2.43-1.87-1.66-1.41,11.22,6.3,12.61,6.87S-15.72.5-13.95,1-3.89,6.36-1.12,7.79,4.51,11.13,4.51,11.13Z"/><path class="cls-3" d="M5.54,127.53c.32,1.23,8.94,17,12.92,21.64s4.13,6,5,5.85,3-1,2.08-1.59a55.46,55.46,0,0,1-7.08-7.17c-3.15-3.72-12-18.39-12.88-19.74S5.54,127.53,5.54,127.53Z"/><path class="cls-10" d="M6,128c.43.9,9,14.92,11.21,17.63s7.25,9.07,7.4,8.39-5.33-5.44-7.2-8.52-9.31-14.27-9.92-15.21Z"/><path class="cls-11" d="M14.37,78.81a21.6,21.6,0,0,0,.34,4.4c.22.45.29-.83.5-.38s0,1.67.25,2.5.35-.72.5-.1,0,2.89.25,3.34.4-1.17.45-.5A14,14,0,0,0,17,91c.21.44,1.12-.55.88.12a7,7,0,0,0-.47,3l0,2.33c.17.36.74-.3.9.31s-.11,2.48,0,3.26c.06.45,1,.1,1,.58.1,1.07-.87,2.88-1,4.09,0,.33.87.06.82.39-.4,2.55-1.26,4.94-2.41,5.94a10.63,10.63,0,0,0-3.35,6.19,74.14,74.14,0,0,1,9.21-6.92c.67-.39,2.77-2.26,3.35-2.51.43-.17-.38,1,.33.68a30.13,30.13,0,0,1,3.55-1.64c.62-.17-.72,1-.07.86l1.36-.39c.59-.18,2.92-1.91,3.5-2.11.4-.13-.28.93.11.78s2-1.58,2.34-1.76c.12,0-.33,1.08,0,.83.75-.53,1.35-1.36,1.59-1.5,1-.55,0,1.4.42.86A3.93,3.93,0,0,1,41.74,103a7.8,7.8,0,0,1-1.43,2.49c-.52.49.89.17.55.94a17.73,17.73,0,0,1-1.62,1.82c-.33.35.75,0,.68.14-.52,1-1.25,1.31-1.83,1.91-.18.19.53.4.26.7s-2.65,2.16-3,2.49,1.12,0,.67.42c-.8.81-2.56,1.62-2.9,2-.64.66.92.52.22,1.17-.33.31-2.91,1.43-3.25,1.72a13.45,13.45,0,0,1-6.9,3.31,66,66,0,0,0-8.59,1.68,8.32,8.32,0,0,1,6.27,1.52c.4.27,2.55.75,3,1.1s-.54.43-.12.67,1.81-.31,2.12-.14-.47.27-.22.41,1.58.31,1.92.49c.17.09-.64.6-.29.76a11.72,11.72,0,0,0,1.4.24c.33.17-.28.36,0,.35a3.06,3.06,0,0,1,1.85.68,3.78,3.78,0,0,1-1.75.55c-.47,0,.43.45-.07.68a14.81,14.81,0,0,1-1.92.36c-.48.12.35.73-.12.7a23.75,23.75,0,0,0-2.46-.13c-.25,0,0,.6-.28.65s-1.55-.38-1.87-.31.64.49.17.59-2-.11-2.66,0c-2.1.31-4.29.33-5.92-.68-3.56-2.21-5.46-3.42-7-3.22s-.62,5.28-.62,5.28a23.42,23.42,0,0,1-.47,3.65c-.1.39.18,1.28.07,1.66s-.58.11-.67.41c-.27.81-.55,1.54-.8,2.1-.1.24-.47-.41-.61-.13-.37.77-.6,2.54-1,3-.29.29-.42-.06-.76.21-.19.15-.72.73-.93.88s-.07-.69-.35-.51c-.57.36-2,2.9-2.12,2.62-.65-1.2.51-2.46.21-3.28-.07-.16-.47.24-.54,0s-.16-1.59-.24-1.82c-.16-.46-.89.56-1,.07s.77-1.56,1-2.29c.07-.27-.57-.18-.48-.44a13.81,13.81,0,0,0,.43-1.66c.07-.29-.6.2-.55-.09s.86-1.37.92-1.66a5.93,5.93,0,0,1,1.16-2.8c1.12-1.1-3.73,5.41-8.19,5.91-.39.05-2.28,1.71-2.72,1.85-.7.23.07-2.85-.89-1.78a11.1,11.1,0,0,1-4.33,2.46c-.57.06.43-1.47-.18-1.36-.85.14-2.71,1.6-3.54,1.71-.53.06,1.34-2.77.17-1.65a20.37,20.37,0,0,1-5.17,1.76c-.71,0,1-1.25-.18-1.17-.42,0-3.05,1.54-3.52,1.57s.31-.8-.33-.78-2.09.62-2.63.58.12-1-.31-1.16-2,.28-2.31.07c-.74-.43.47-1.1,1.26-1.94.28-.32-.8-.49-.37-.82s2.47-.87,3-1.2-.94-.51-.39-.82c.35-.2,3.44-.19,3.81-.38.62-.31-1.09-.6-.61-1a26,26,0,0,1,3.84-.94c.29-.09-.43-.94.11-1.18a8.77,8.77,0,0,1,3.29-.35c1.48.19-1.42-.88-.84-1.17a15.41,15.41,0,0,1,5-.84c1.86-.14-1.89-1-1.32-1.27l3.36-1.91a16.69,16.69,0,0,1,4-1.42,35.2,35.2,0,0,1,7.87-2.3c1.11,0-14.89-1.06-20-4.12-1.21-.73-3.19-1.52-3.82-2.35-.5-.67,1.08-1.49.57-2.12-.19-.24-2.44-.37-3.17-.82-.4-.25.09-.92-.22-1.13s-1.34.11-1.41,0c-.59-.8,1.08-.69.49-1.38-.26-.29-2.55-1.05-3.45-1.78-.51-.42,1.76-1.21.32-1-.49.06-1.54-.84-1.94-1.19s.85-.35.27-.86S-38,107-38.52,106.53s.12-.78-.27-1.12l-3-2.64s2.46.89,5.39,1.79c.38.12.23-.88.62-.77s2.45,1.74,2.82,1.84c.64.18-.49-1,.13-.86s1.72,1.22,2.24,1.32c1.25.25.71-.64,1.4-.74.44,0,2.82,1.6,3.56,1.7.52.07-1.31-2.25-.68-2.12a4.39,4.39,0,0,1,1.52.87c.3.35.32-.75.6-.42s2.59,2.57,2.69,2.59c.84.2.72-1.31,1.58-1s2.17,1.54,2.91,1.81c3.22,1.16,6.11,2.62,7.48,4.07,2.86,3,3.85,3.38,3.85,3.38s-3.43-4.33-6.39-8.79c-.73-1.1-1.32-2-1.93-3-.31-.53-.71-1.27-1-1.77s1.37,0,1.18-.43-3.14-3.81-3.25-4.23c-.19-.77,1.84.8,1.64-.38-.08-.42-2-3-2.09-3.45s1,.54.91.1c-.1-.81-.81-1.73-.87-2.49,0-.13.57.24.42-.38s-.95-2.13-1-2.27c-.08-.92.65.68.58-.21,0-.37-.64-2.19-.67-2.55-.08-.82.73.52.64-.18-.06-.42-1-2.16-1.11-2.51-.11-.61.76-.22.62-.6s-1.22-1.62-1.29-2,.84.57.81.13c-.13-1.8-.28-4.24-.28-4.24s1,1.57,2.27,3.17c.16.2.28-.53.45-.31.32.41.7,1.78,1.06,2.23s.35-.3.64.06.54,1.84.8,2.15c.45.56.13-.93.59-.39.15.16,1.08,2.37,1.22,2.54.47.53.42-.85.87-.38.26.28.85,1.64,1.24,2.26.23.36.26-.82.41-.68.47.46,1.08,2.63,1.47,2.93s.49-.36.84,0a5.72,5.72,0,0,1,1.4,1.64c.29.76.63-.7,1.08-.17.32.38.63,2.45.95,2.86s.29,1,.59,1.39.39-2.29,1.1-1.16c.37.58.92,2.86,1.27,3.42a19.1,19.1,0,0,1,2.79,5.85c.63,3.57,1.35,8.47,1.35,8.47s.47-12,2.74-15.57c.83-1.32,2-3.67,3.17-5.89.16-.29.07-1.09.23-1.39s.52,0,.61-.18c.42-.83.43-3.06.8-3.86.1-.2.26.61.35.41s.25-1.88.37-2.16c.23-.51.46.31.65-.14s.06-1.77.2-2.12.59.17.69-.13Z"/><path class="cls-12" d="M6.35,126.33c.28-.14,1.5.93,1.6,1.3s-.76.71-1.12.82.3.75-.5.1S4,125.83,4.47,125.72A5.12,5.12,0,0,1,6.35,126.33Z"/><path class="cls-13" d="M6,127.69c.12-.75,10-8.12,10.85-8.53s12.23-6.56,15.09-8.36a53.36,53.36,0,0,0,6.9-5.71c1.15-1-5.93,5.58-6.29,6s-5.72,3.75-6.78,4.26-6.4,2.91-7.24,3.59-3.54,2.83-4,3.1a45.56,45.56,0,0,1-3.89,2.38c-1.62.78-3.83,4.07-5.42,4.63C4.76,129.19,6,127.69,6,127.69Z"/><path class="cls-14" d="M1.32,120.69c1.65,2.65,3.77,6.46,3.77,6.46A69.81,69.81,0,0,1,.4,120C-3.42,113.2-9.82,99.58-10.81,97a58.69,58.69,0,0,0-3-6.16,10.48,10.48,0,0,0-.87-1.51s6,10.36,6.6,11.87,3.53,7.27,4.67,9.89A83.13,83.13,0,0,0,1.32,120.69Z"/><path class="cls-13" d="M5.31,127.87c-.09-1.61,2.91-16.48,3.5-19.81s2.08-11.93,2.43-13.21.16,5.73-.29,6.23,0,6.78-1,7.55-1.1,4-1,5.05a37.67,37.67,0,0,1-1.37,7.43A14,14,0,0,0,7.38,124c0,.8,1.37.65,1.08,1C7.72,125.73,5.31,127.87,5.31,127.87Z"/><path class="cls-14" d="M4.82,126.73s1.86-7.4,2-9.13,3-17,3.77-18.7,2.06-9.71,2.19-11.15a38,38,0,0,1,1.11-4.83S12.06,94.65,11.61,97s-1.26,3.1-1.62,5.49-2.2,12.55-2.67,14.43-1.94,9.93-2.23,10.21S4.82,126.73,4.82,126.73Z"/><path class="cls-14" d="M5.31,127.87a77.88,77.88,0,0,1,8.08-6.13c3.58-2.3,17.46-9.87,19.09-11.36s5.5-4.61,5.5-4.61-6.22,4.55-8.52,5.8-12.26,7.21-15.28,9c-3.41,2-7,5.62-7.85,6-1.24.6-1.67-.57-1.51.18A2.77,2.77,0,0,0,5.31,127.87Z"/><path class="cls-14" d="M5.9,127c.81.1,11.37.91,13.39,1.52a54,54,0,0,0,7.38,1,6.45,6.45,0,0,0,1.5.24c.31-.08-2.86-.06-3.89,0s-8.24-1.46-10.38-1.6-6.31-.73-6.92-.71-1,.49-1.44.15S5.9,127,5.9,127Z"/><path class="cls-14" d="M5.54,127.49c-.23.38-3.41,8.64-3.4,9.81s-1.43,6.57-1.44,7,.22-2.38.35-3.69a63.31,63.31,0,0,1,1.72-7.41C3.23,131.86,5,127,5.21,127S5.54,127.49,5.54,127.49Z"/><path class="cls-14" d="M4.82,126.73c-.92.24-12.83,6.17-15,7.2s-11.79,3.95-13.62,4.69c-1.62.64-10.59,2.38-8,2.35,2,0,13.11-3.74,17.41-5.14a99.3,99.3,0,0,0,12.58-5.42c1.4-.82,7.15-2.1,7.29-2.92S4.82,126.73,4.82,126.73Z"/><path class="cls-14" d="M4.51,127.09c-.72.21-14.1-7.11-16-8.25s-13.28-6.26-14.33-7-10.44-5.84-11.88-6.53-2.43-1.86-1.66-1.41,11.22,6.3,12.61,6.87,11.06,5.69,12.83,6.21,10.06,5.34,12.83,6.76S4.51,127.09,4.51,127.09Z"/><path class="cls-3" d="M121.5,127.53c.32,1.23,8.94,17,12.92,21.64s4.13,6,5,5.85,3-1,2.08-1.59a55.46,55.46,0,0,1-7.08-7.17c-3.15-3.72-12-18.39-12.88-19.74S121.5,127.53,121.5,127.53Z"/><path class="cls-10" d="M121.94,128c.44.9,9,14.92,11.22,17.63s7.25,9.07,7.4,8.39-5.33-5.44-7.2-8.52-9.31-14.27-9.92-15.21Z"/><path class="cls-11" d="M130.33,78.81a20.91,20.91,0,0,0,.34,4.4c.21.45.28-.83.5-.38s0,1.67.25,2.5.34-.72.5-.1,0,2.89.24,3.34.41-1.17.45-.5a15.58,15.58,0,0,0,.3,2.9c.22.44,1.12-.55.89.12a7,7,0,0,0-.48,3l0,2.33c.18.36.75-.3.9.31s-.1,2.48,0,3.26c.07.45,1,.1,1,.58.1,1.07-.87,2.88-1,4.09,0,.33.87.06.82.39-.4,2.55-1.26,4.94-2.41,5.94a10.63,10.63,0,0,0-3.35,6.19,74.55,74.55,0,0,1,9.2-6.92c.67-.39,2.78-2.26,3.36-2.51.43-.17-.39,1,.33.68a30.13,30.13,0,0,1,3.55-1.64c.62-.17-.72,1-.07.86l1.35-.39c.6-.18,2.93-1.91,3.51-2.11.4-.13-.28.93.11.78s2-1.58,2.34-1.76c.12,0-.33,1.08,0,.83.75-.53,1.35-1.36,1.59-1.5,1-.55,0,1.4.42.86A3.91,3.91,0,0,1,157.7,103a7.71,7.71,0,0,1-1.44,2.49c-.51.49.9.17.55.94a16.2,16.2,0,0,1-1.61,1.82c-.33.35.75,0,.68.14-.52,1-1.25,1.31-1.83,1.91-.18.19.53.4.26.7s-2.66,2.16-3,2.49,1.12,0,.67.42c-.8.81-2.56,1.62-2.9,2-.64.66.92.52.22,1.17-.34.31-2.91,1.43-3.25,1.72a13.44,13.44,0,0,1-6.91,3.31,66,66,0,0,0-8.58,1.68,8.32,8.32,0,0,1,6.27,1.52c.4.27,2.55.75,3,1.1s-.53.43-.11.67,1.81-.31,2.12-.14-.47.27-.22.41,1.58.31,1.92.49c.17.09-.64.6-.29.76a11.72,11.72,0,0,0,1.4.24c.33.17-.28.36,0,.35a3.06,3.06,0,0,1,1.85.68,3.78,3.78,0,0,1-1.75.55c-.47,0,.42.45-.07.68a15,15,0,0,1-1.93.36c-.47.12.35.73-.11.7a23.75,23.75,0,0,0-2.46-.13c-.26,0,0,.6-.28.65s-1.55-.38-1.87-.31.64.49.17.59-2.05-.11-2.66,0c-2.1.31-4.29.33-5.92-.68-3.56-2.21-5.47-3.42-7-3.22s-.61,5.28-.61,5.28a24.69,24.69,0,0,1-.47,3.65c-.1.39.17,1.28.06,1.66s-.57.11-.67.41a21.21,21.21,0,0,1-.79,2.1c-.11.24-.47-.41-.61-.13-.37.77-.61,2.54-1.06,3-.28.29-.41-.06-.76.21-.18.15-.71.73-.92.88s-.07-.69-.36-.51c-.56.36-2,2.9-2.11,2.62-.66-1.2.51-2.46.2-3.28-.06-.16-.46.24-.53,0s-.16-1.59-.24-1.82c-.16-.46-.9.56-1,.07s.77-1.56,1-2.29c.07-.27-.58-.18-.49-.44a12.13,12.13,0,0,0,.44-1.66c.07-.29-.61.2-.55-.09s.86-1.37.92-1.66a6,6,0,0,1,1.15-2.8c1.13-1.1-3.73,5.41-8.18,5.91-.39.05-2.28,1.71-2.72,1.85-.7.23.07-2.85-.89-1.78a11.1,11.1,0,0,1-4.33,2.46c-.57.06.43-1.47-.18-1.36-.85.14-2.71,1.6-3.54,1.71-.53.06,1.34-2.77.17-1.65a20.51,20.51,0,0,1-5.17,1.76c-.71,0,1-1.25-.18-1.17-.42,0-3.06,1.54-3.52,1.57s.31-.8-.33-.78-2.1.62-2.64.58.13-1-.3-1.16-2,.28-2.31.07c-.74-.43.46-1.1,1.25-1.94.29-.32-.79-.49-.36-.82s2.47-.87,3-1.2-.94-.51-.4-.82c.36-.2,3.45-.19,3.81-.38.63-.31-1.08-.6-.61-1a26.64,26.64,0,0,1,3.84-.94c.3-.09-.42-.94.12-1.18a8.77,8.77,0,0,1,3.29-.35c1.47.19-1.43-.88-.84-1.17a15.41,15.41,0,0,1,5-.84c1.86-.14-1.89-1-1.32-1.27l3.35-1.91a16.86,16.86,0,0,1,4-1.42,35.2,35.2,0,0,1,7.87-2.3c1.11,0-14.9-1.06-20-4.12-1.21-.73-3.19-1.52-3.82-2.35-.51-.67,1.08-1.49.57-2.12-.2-.24-2.44-.37-3.17-.82-.41-.25.09-.92-.22-1.13s-1.34.11-1.41,0c-.59-.8,1.08-.69.48-1.38-.25-.29-2.54-1.05-3.44-1.78-.51-.42,1.76-1.21.31-1-.48.06-1.53-.84-1.93-1.19s.85-.35.27-.86-2.88-1.06-3.36-1.48.13-.78-.26-1.12l-3-2.64s2.46.89,5.38,1.79c.39.12.24-.88.63-.77s2.45,1.74,2.82,1.84c.64.18-.49-1,.13-.86s1.72,1.22,2.24,1.32c1.25.25.71-.64,1.4-.74.44,0,2.81,1.6,3.56,1.7.52.07-1.31-2.25-.68-2.12a4.58,4.58,0,0,1,1.52.87c.3.35.32-.75.6-.42S94.41,108,94.51,108c.84.2.72-1.31,1.58-1s2.17,1.54,2.91,1.81c3.21,1.16,6.11,2.62,7.48,4.07,2.85,3,3.85,3.38,3.85,3.38s-3.43-4.33-6.39-8.79c-.73-1.1-1.32-2-1.94-3-.31-.53-.71-1.27-1-1.77s1.38,0,1.19-.43S99.07,98.35,99,97.93c-.19-.77,1.84.8,1.63-.38-.07-.42-2-3-2.08-3.45s1,.54.91.1c-.11-.81-.81-1.73-.87-2.49,0-.13.57.24.42-.38a23.67,23.67,0,0,0-1-2.27c-.07-.92.66.68.59-.21,0-.37-.64-2.19-.67-2.55-.08-.82.73.52.64-.18-.06-.42-1-2.16-1.11-2.51-.11-.61.76-.22.62-.6s-1.22-1.62-1.29-2,.84.57.81.13c-.13-1.8-.29-4.24-.29-4.24s1,1.57,2.28,3.17c.16.2.28-.53.45-.31.32.41.7,1.78,1.06,2.23s.35-.3.63.06.55,1.84.81,2.15c.45.56.13-.93.59-.39.15.16,1.07,2.37,1.22,2.54.47.53.42-.85.86-.38.27.28.86,1.64,1.24,2.26.23.36.27-.82.42-.68.46.46,1.08,2.63,1.47,2.93s.49-.36.84,0a5.88,5.88,0,0,1,1.4,1.64c.29.76.62-.7,1.08-.17.32.38.62,2.45,1,2.86s.28,1,.59,1.39.38-2.29,1.1-1.16c.36.58.91,2.86,1.27,3.42a19.34,19.34,0,0,1,2.79,5.85c.63,3.57,1.35,8.47,1.35,8.47s.47-12,2.74-15.57c.83-1.32,2-3.67,3.17-5.89.16-.29.07-1.09.22-1.39s.53,0,.62-.18c.42-.83.42-3.06.8-3.86.09-.2.26.61.35.41s.24-1.88.37-2.16c.23-.51.45.31.64-.14s.07-1.77.21-2.12.58.17.69-.13Z"/><path class="cls-12" d="M122.31,126.33c.28-.14,1.49.93,1.6,1.3s-.76.71-1.12.82.3.75-.5.1-2.36-2.72-1.86-2.83A5.12,5.12,0,0,1,122.31,126.33Z"/><path class="cls-13" d="M121.94,127.69c.12-.75,10-8.12,10.85-8.53s12.23-6.56,15.08-8.36a52.89,52.89,0,0,0,6.91-5.71c1.15-1-5.93,5.58-6.3,6a78.38,78.38,0,0,1-6.77,4.26c-1.07.52-6.4,2.91-7.25,3.59s-3.53,2.83-4,3.1a45.56,45.56,0,0,1-3.89,2.38c-1.62.78-3.83,4.07-5.42,4.63C120.71,129.19,121.94,127.69,121.94,127.69Z"/><path class="cls-14" d="M117.28,120.69c1.65,2.65,3.77,6.46,3.77,6.46a68.15,68.15,0,0,1-4.69-7.12c-3.82-6.83-10.22-20.45-11.21-23a60.81,60.81,0,0,0-3-6.16,10.48,10.48,0,0,0-.87-1.51s6,10.36,6.59,11.87,3.54,7.27,4.68,9.89A81.5,81.5,0,0,0,117.28,120.69Z"/><path class="cls-13" d="M121.27,127.87c-.1-1.61,2.91-16.48,3.5-19.81s2.08-11.93,2.43-13.21.16,5.73-.29,6.23,0,6.78-1,7.55-1.1,4-1,5.05a38.42,38.42,0,0,1-1.36,7.43,14,14,0,0,0-.17,2.89c0,.8,1.37.65,1.07,1C123.68,125.73,121.27,127.87,121.27,127.87Z"/><path class="cls-14" d="M120.78,126.73s1.86-7.4,2-9.13,3-17,3.77-18.7,2.06-9.71,2.18-11.15a39.36,39.36,0,0,1,1.12-4.83S128,94.65,127.56,97s-1.26,3.1-1.61,5.49-2.2,12.55-2.67,14.43-2,9.93-2.23,10.21S120.78,126.73,120.78,126.73Z"/><path class="cls-14" d="M121.27,127.87a78.49,78.49,0,0,1,8.07-6.13c3.59-2.3,17.47-9.87,19.1-11.36s5.5-4.61,5.5-4.61-6.23,4.55-8.52,5.8-12.26,7.21-15.28,9c-3.41,2-7,5.62-7.86,6-1.23.6-1.66-.57-1.5.18A2.77,2.77,0,0,0,121.27,127.87Z"/><path class="cls-14" d="M121.86,127c.81.1,11.36.91,13.39,1.52a54,54,0,0,0,7.38,1,6.36,6.36,0,0,0,1.5.24c.31-.08-2.86-.06-3.89,0s-8.24-1.46-10.38-1.6-6.31-.73-6.92-.71-1,.49-1.45.15S121.86,127,121.86,127Z"/><path class="cls-14" d="M121.49,127.49c-.22.38-3.4,8.64-3.39,9.81s-1.43,6.57-1.44,7,.22-2.38.35-3.69a59.51,59.51,0,0,1,1.72-7.41c.46-1.32,2.18-6.17,2.44-6.22S121.49,127.49,121.49,127.49Z"/><path class="cls-14" d="M120.78,126.73c-.92.24-12.83,6.17-15,7.2S94,137.88,92.2,138.62c-1.62.64-10.59,2.38-8,2.35,2,0,13.11-3.74,17.41-5.14a99,99,0,0,0,12.57-5.42c1.4-.82,7.16-2.1,7.29-2.92S120.78,126.73,120.78,126.73Z"/><path class="cls-14" d="M120.47,127.09c-.73.21-14.1-7.11-16-8.25s-13.27-6.26-14.32-7S79.66,106,78.22,105.31s-2.42-1.86-1.65-1.41,11.22,6.3,12.6,6.87S100.23,116.46,102,117s10.06,5.34,12.82,6.76A64.75,64.75,0,0,1,120.47,127.09Z"/></g></pattern></defs><g id="圖層_2" data-name="圖層 2"><g id="圖層_1-2" data-name="圖層 1"><rect class="cls-15" width="200" height="200"/></g></g></svg>