<?xml version="1.0" encoding="utf-8"?>
<!-- Generator: Adobe Illustrator 25.0.1, SVG Export Plug-In . SVG Version: 6.00 Build 0)  -->
<svg version="1.1" id="圖層_1" xmlns="http://www.w3.org/2000/svg" xmlns:xlink="http://www.w3.org/1999/xlink" x="0px" y="0px"
	 viewBox="0 0 260 260" style="enable-background:new 0 0 260 260;" xml:space="preserve">
<style type="text/css">
	.st0{fill:#327D9E;}
	.st1{fill:#E1FFFD;}
	.st2{clip-path:url(#SVGID_2_);}
	.st3{fill:#FFB7A4;}
	.st4{fill:none;}
</style>
<rect x="-0.3" y="-0.3" class="st0" width="260.7" height="260.7"/>
<g>
	<g>
		<g>
			<g>
				<path class="st1" d="M-6.9,72c-11.4,0-20.8-9.3-20.8-20.8s9.3-20.8,20.8-20.8c11.4,0,20.8,9.3,20.8,20.8S4.6,72-6.9,72z
					 M-6.9,31.3c-11,0-20,9-20,20s9,20,20,20s20-9,20-20S4.1,31.3-6.9,31.3z"/>
			</g>
			<g>
				<path class="st1" d="M13.5,72C2,72-7.3,62.7-7.3,51.3S2,30.5,13.5,30.5s20.8,9.3,20.8,20.8S24.9,72,13.5,72z M13.5,31.3
					c-11,0-20,9-20,20s9,20,20,20s20-9,20-20S24.5,31.3,13.5,31.3z"/>
			</g>
		</g>
		<g>
			<path class="st1" d="M3.4,54.4c-11.4,0-20.8-9.3-20.8-20.8c0-11.4,9.3-20.8,20.8-20.8c11.4,0,20.8,9.3,20.8,20.8
				C24.1,45.1,14.8,54.4,3.4,54.4z M3.4,13.7c-11,0-20,9-20,20c0,11,9,20,20,20s20-9,20-20C23.3,22.7,14.4,13.7,3.4,13.7z"/>
		</g>
	</g>
</g>
<g>
	<g>
		<g>
			<g>
				<path class="st1" d="M64.6,167.6C64.6,167.6,64.6,167.6,64.6,167.6c-0.2,0-0.3-0.1-0.3-0.2c-0.2-0.4-0.4-0.7-0.7-1
					c-0.3-0.3-0.6-0.5-1-0.7c-0.1-0.1-0.2-0.2-0.2-0.3c0-0.1,0-0.2,0.1-0.3l14.2-14.2c0.1-0.1,0.4-0.1,0.5,0l1.9,1.9
					c0.1,0.1,0.1,0.2,0.1,0.3c0,0.1,0,0.2-0.1,0.3l-14.2,14.2C64.8,167.6,64.7,167.6,64.6,167.6z M63.4,165.3
					c0.3,0.2,0.5,0.4,0.7,0.6c0.2,0.2,0.4,0.5,0.6,0.7l13.6-13.6l-1.3-1.3L63.4,165.3z"/>
			</g>
			<g>
				<path class="st1" d="M89.7,142.5L89.7,142.5c-0.1,0-0.2,0-0.3-0.1l-1.9-1.9c-0.1-0.1-0.1-0.4,0-0.5l14.2-14.2
					c0.1-0.1,0.2-0.1,0.3-0.1c0.1,0,0.2,0.1,0.3,0.2c0.2,0.4,0.4,0.7,0.7,1c0.3,0.3,0.6,0.5,1,0.7c0.1,0.1,0.2,0.2,0.2,0.3
					c0,0.1,0,0.2-0.1,0.3L90,142.4C89.9,142.5,89.8,142.5,89.7,142.5z M88.4,140.2l1.3,1.3l13.6-13.6c-0.3-0.2-0.5-0.4-0.7-0.6
					c0,0,0,0,0,0c-0.2-0.2-0.4-0.5-0.6-0.7L88.4,140.2z"/>
			</g>
			<g>
				<path class="st1" d="M60.4,174.8c-1.4,0-2.7-0.5-3.7-1.5c-2-2-2-5.3,0-7.4c1.6-1.6,4.2-2,6.2-0.9c0.4,0.2,0.8,0.5,1.1,0.9
					c0,0,0,0,0,0c0.3,0.3,0.6,0.7,0.9,1.1c1.1,2,0.8,4.6-0.9,6.2C63.1,174.2,61.8,174.8,60.4,174.8z M60.4,165.1
					c-1.2,0-2.3,0.4-3.1,1.3c-1.7,1.7-1.7,4.5,0,6.3c0.8,0.8,2,1.3,3.1,1.3s2.3-0.5,3.1-1.3c1.4-1.4,1.7-3.6,0.7-5.3
					c-0.2-0.4-0.4-0.7-0.7-1c-0.3-0.3-0.6-0.5-1-0.7C61.9,165.3,61.1,165.1,60.4,165.1z"/>
			</g>
			<g>
				<path class="st1" d="M106.2,128.9c-0.9,0-1.7-0.2-2.5-0.7c-0.4-0.2-0.8-0.5-1.1-0.9c-0.3-0.3-0.6-0.7-0.9-1.1
					c-1.1-2-0.8-4.6,0.9-6.2c1-1,2.3-1.5,3.7-1.5c0,0,0,0,0,0c1.4,0,2.7,0.5,3.7,1.5l0,0l0,0c1,1,1.5,2.3,1.5,3.7
					c0,1.4-0.5,2.7-1.5,3.7C108.9,128.4,107.6,128.9,106.2,128.9z M106.3,119.3c-1.2,0-2.3,0.5-3.1,1.3c-1.4,1.4-1.7,3.6-0.7,5.3
					c0.2,0.4,0.4,0.7,0.7,1c0.3,0.3,0.6,0.5,1,0.7c1.7,1,3.9,0.7,5.3-0.7c0.8-0.8,1.3-2,1.3-3.1c0-1.2-0.5-2.3-1.3-3.1l0,0
					C108.6,119.8,107.4,119.3,106.3,119.3C106.3,119.3,106.3,119.3,106.3,119.3z"/>
			</g>
			<g>
				<path class="st1" d="M83.3,158c-0.1,0-0.2,0-0.3-0.1l-11-11c-0.1-0.1-0.1-0.4,0-0.5l11-11c0.1-0.1,0.4-0.1,0.5,0l11,11
					c0.1,0.1,0.1,0.4,0,0.5l-3.9,3.9c-0.1,0.1-0.3,0.1-0.5,0l-6.4-4.2l0.6,10.2c0,0.1,0,0.2-0.1,0.3l-0.7,0.7
					C83.5,158,83.4,158,83.3,158z M72.9,146.7l10.4,10.4l0.3-0.3L82.9,146c0-0.1,0.1-0.3,0.2-0.4c0.1-0.1,0.3-0.1,0.4,0l6.8,4.5
					l3.4-3.4l-10.4-10.4L72.9,146.7z"/>
			</g>
		</g>
		<g>
			<path class="st1" d="M98.4,174.8c-0.2,0-0.5,0-0.7-0.1c-0.7-0.2-1.3-0.6-1.7-1.3l-5.6-9.8l-5.6,3.3c-0.1,0.1-0.3,0.1-0.4,0
				c-0.1-0.1-0.2-0.2-0.2-0.3L82.9,146c0-0.1,0.1-0.3,0.2-0.4c0.1-0.1,0.3-0.1,0.4,0l17.2,11.4c0.1,0.1,0.2,0.2,0.2,0.3
				c0,0.1-0.1,0.3-0.2,0.3l-5.6,3.3l5.6,9.8c0.2,0.4,0.4,0.9,0.4,1.4c0,1-0.5,1.9-1.4,2.4C99.3,174.7,98.9,174.8,98.4,174.8z
				 M90.5,162.8c0.1,0,0.3,0.1,0.3,0.2l5.8,10.1c0.3,0.5,0.7,0.8,1.2,0.9c0.5,0.1,1,0.1,1.5-0.2c0.6-0.4,1-1,1-1.7
				c0-0.3-0.1-0.7-0.3-1L94.3,161c-0.1-0.1-0.1-0.2,0-0.3c0-0.1,0.1-0.2,0.2-0.2l5.4-3.1l-16.1-10.6l1.2,19.2l5.4-3.1
				C90.4,162.8,90.5,162.8,90.5,162.8z"/>
		</g>
	</g>
</g>
<g>
	<g>
		<g>
			<path class="st1" d="M-2.4,221.5C-2.4,221.5-2.4,221.5-2.4,221.5c0,0-5,0-9.9-2c-6.6-2.7-10.2-7.6-10.4-14.2
				c-0.1-3.3,1.4-6.5,4.3-9c2.6-2.3,6.2-4,9.9-4.7c3-0.6,5.2-3,5.4-5.9l0.1-1.1c0.3-4.4,2.7-8.5,6.4-10.8c2.2-1.4,4.6-2.1,7.2-2.1
				c7.7,0,14.4,5,16.1,12.3c0.8,2.6,1.2,5.3,1.2,8.1c0,6.7-1.6,12.5-4.8,17.1c-2.5,3.7-6,6.6-10.5,8.8
				C5.3,221.5-2.3,221.5-2.4,221.5z M10.7,172.3c-2.4,0-4.7,0.7-6.8,2c-3.5,2.3-5.8,6.1-6.1,10.3l-0.1,1.1c-0.2,3.2-2.7,5.9-5.9,6.5
				c-3.6,0.7-7.1,2.3-9.6,4.5c-2,1.7-4.3,4.6-4.1,8.5c0.2,6.4,3.6,11,10,13.6c4.8,1.9,9.6,2,9.7,2c0.1,0,7.5,0,14.9-3.6
				c9.8-4.8,14.8-13.3,14.8-25.3c0-2.7-0.4-5.3-1.2-7.9c0,0,0,0,0,0C24.5,177.1,18.1,172.3,10.7,172.3z"/>
		</g>
		<g>
			<path class="st1" d="M10.5,188.9c-3.7,0-6.7-3-6.7-6.7c0-3.7,3-6.7,6.7-6.7s6.7,3,6.7,6.7C17.2,185.9,14.2,188.9,10.5,188.9z
				 M10.5,176.2c-3.3,0-6,2.7-6,6c0,3.3,2.7,6,6,6s6-2.7,6-6C16.6,178.9,13.9,176.2,10.5,176.2z"/>
		</g>
		<g>
			<path class="st1" d="M-14.4,210.5c-3.1,0-5.6-2.5-5.6-5.6c0-3.1,2.5-5.6,5.6-5.6s5.6,2.5,5.6,5.6C-8.8,208-11.3,210.5-14.4,210.5
				z M-14.4,200c-2.7,0-4.9,2.2-4.9,4.9s2.2,4.9,4.9,4.9s4.9-2.2,4.9-4.9S-11.7,200-14.4,200z"/>
		</g>
		<g>
			<path class="st1" d="M-14.4,209c-2.2,0-4.1-1.8-4.1-4.1c0-2.2,1.8-4.1,4.1-4.1s4.1,1.8,4.1,4.1C-10.3,207.2-12.2,209-14.4,209z
				 M-14.4,201.5c-1.9,0-3.4,1.5-3.4,3.4c0,1.9,1.5,3.4,3.4,3.4s3.4-1.5,3.4-3.4C-11,203.1-12.5,201.5-14.4,201.5z"/>
		</g>
		<g>
			<path class="st1" d="M-3.5,218.7c-3.1,0-5.6-2.5-5.6-5.6c0-3.1,2.5-5.6,5.6-5.6s5.6,2.5,5.6,5.6C2.1,216.2-0.4,218.7-3.5,218.7z
				 M-3.5,208.2c-2.7,0-4.9,2.2-4.9,4.9s2.2,4.9,4.9,4.9s4.9-2.2,4.9-4.9S-0.8,208.2-3.5,208.2z"/>
		</g>
		<g>
			<path class="st1" d="M-3.5,217.2c-2.2,0-4.1-1.8-4.1-4.1c0-2.2,1.8-4.1,4.1-4.1s4.1,1.8,4.1,4.1C0.6,215.4-1.2,217.2-3.5,217.2z
				 M-3.5,209.7c-1.9,0-3.4,1.5-3.4,3.4c0,1.9,1.5,3.4,3.4,3.4c1.9,0,3.4-1.5,3.4-3.4C-0.1,211.3-1.6,209.7-3.5,209.7z"/>
		</g>
		<g>
			<path class="st1" d="M10.1,214.7c-3.1,0-5.6-2.5-5.6-5.6c0-3.1,2.5-5.6,5.6-5.6s5.6,2.5,5.6,5.6
				C15.7,212.2,13.2,214.7,10.1,214.7z M10.1,204.2c-2.7,0-4.9,2.2-4.9,4.9s2.2,4.9,4.9,4.9s4.9-2.2,4.9-4.9S12.9,204.2,10.1,204.2z
				"/>
		</g>
		<g>
			<path class="st1" d="M10.1,213.2c-2.2,0-4.1-1.8-4.1-4.1c0-2.2,1.8-4.1,4.1-4.1s4.1,1.8,4.1,4.1
				C14.2,211.3,12.4,213.2,10.1,213.2z M10.1,205.7c-1.9,0-3.4,1.5-3.4,3.4c0,1.9,1.5,3.4,3.4,3.4s3.4-1.5,3.4-3.4
				C13.6,207.2,12,205.7,10.1,205.7z"/>
		</g>
		<g>
			<path class="st1" d="M18.9,203.6c-3.1,0-5.6-2.5-5.6-5.6s2.5-5.6,5.6-5.6s5.6,2.5,5.6,5.6S22,203.6,18.9,203.6z M18.9,193.1
				c-2.7,0-4.9,2.2-4.9,4.9s2.2,4.9,4.9,4.9s4.9-2.2,4.9-4.9S21.6,193.1,18.9,193.1z"/>
		</g>
		<g>
			<path class="st1" d="M18.9,202.1c-2.2,0-4.1-1.8-4.1-4.1c0-2.2,1.8-4.1,4.1-4.1s4.1,1.8,4.1,4.1C23,200.3,21.1,202.1,18.9,202.1z
				 M18.9,194.6c-1.9,0-3.4,1.5-3.4,3.4c0,1.9,1.5,3.4,3.4,3.4c1.9,0,3.4-1.5,3.4-3.4C22.3,196.1,20.8,194.6,18.9,194.6z"/>
		</g>
	</g>
</g>
<g>
	<g>
		<g>
			<path class="st1" d="M224.7,142.5H175c-0.9,0-1.5-0.7-1.5-1.5V91.2c0-0.9,0.7-1.5,1.5-1.5h49.7c0.9,0,1.5,0.7,1.5,1.5v49.7
				C226.2,141.8,225.5,142.5,224.7,142.5z M175,90.4c-0.5,0-0.8,0.4-0.8,0.8v49.7c0,0.5,0.4,0.8,0.8,0.8h49.7c0.5,0,0.8-0.4,0.8-0.8
				V91.2c0-0.5-0.4-0.8-0.8-0.8H175z"/>
		</g>
		<g>
			<path class="st1" d="M220.7,137.3H179c-0.2,0-0.4-0.2-0.4-0.4V95.3c0-0.2,0.2-0.4,0.4-0.4h41.7c0.2,0,0.4,0.2,0.4,0.4v41.7
				C221,137.1,220.9,137.3,220.7,137.3z M179.3,136.6h41v-41h-41V136.6z"/>
		</g>
		<g>
			<g>
				<path class="st1" d="M208.9,127.9h-6l-1.7-5.4h-7.8l-1.7,5.4h-6l8.3-23.6h6.4L208.9,127.9z M203.5,127.2h4.4l-7.8-22.2h-5.4
					l-7.8,22.2h4.4l1.7-5.4h8.8L203.5,127.2z M200.9,118.4H194l0.1-0.5c1.6-5.2,2.6-8.5,2.9-9.9l0.7,0c0.1,0.4,0.2,0.9,0.4,1.5
					c0.2,0.6,1,3.4,2.6,8.3L200.9,118.4z M194.9,117.7h5c-1.5-4.7-2.3-7.3-2.4-7.9c0-0.1-0.1-0.2-0.1-0.3
					C196.9,111.2,196.1,113.9,194.9,117.7z"/>
			</g>
			<g>
				<path class="st1" d="M213.5,127.9h-3.8v-12.1h3.8V127.9z M210.4,127.2h2.4v-10.7h-2.4V127.2z M211.6,115.1c-1.3,0-2-0.7-2-1.9
					c0-1.2,0.7-1.9,2-1.9c1.3,0,2,0.7,2,1.9c0,0.6-0.2,1-0.5,1.4C212.8,114.9,212.2,115.1,211.6,115.1z M211.6,112.1
					c-0.9,0-1.3,0.3-1.3,1.2c0,0.8,0.4,1.2,1.3,1.2c0.5,0,0.8-0.1,1-0.3c0.2-0.2,0.3-0.5,0.3-0.9
					C212.9,112.4,212.5,112.1,211.6,112.1z"/>
			</g>
		</g>
	</g>
</g>
<g>
	<g>
		<g>
			<g>
				<path class="st1" d="M107.1,43.1H87.4c-0.2,0-0.3-0.1-0.3-0.3V23.1c0-0.2,0.1-0.3,0.3-0.3h19.7c0.2,0,0.3,0.1,0.3,0.3v19.7
					C107.4,43,107.3,43.1,107.1,43.1z M87.7,42.5h19.1V23.4H87.7V42.5z"/>
			</g>
			<g>
				<path class="st1" d="M124.8,52.5c-6.1,0-11.1-5-11.1-11.1s5-11.1,11.1-11.1c6.1,0,11.1,5,11.1,11.1S130.9,52.5,124.8,52.5z
					 M124.8,30.9c-5.8,0-10.5,4.7-10.5,10.5s4.7,10.5,10.5,10.5c5.8,0,10.5-4.7,10.5-10.5S130.5,30.9,124.8,30.9z"/>
			</g>
			<g>
				<path class="st1" d="M116.5,39.4C116.5,39.4,116.4,39.4,116.5,39.4c-0.3-0.1-0.3-0.2-0.3-0.4c0.6-2.1,2-4,3.8-5.2
					c0.1-0.1,0.3-0.1,0.4,0.1c0.1,0.1,0.1,0.3-0.1,0.4c-1.7,1.2-3,2.9-3.6,4.9C116.8,39.3,116.6,39.4,116.5,39.4z"/>
			</g>
			<g>
				<path class="st1" d="M115.8,66.6h-21c-0.1,0-0.2-0.1-0.3-0.2c-0.1-0.1-0.1-0.2,0-0.3L105,47.9c0.1-0.1,0.2-0.2,0.3-0.2
					c0.1,0,0.2,0.1,0.3,0.2l10.5,18.2c0.1,0.1,0.1,0.2,0,0.3C116,66.5,115.9,66.6,115.8,66.6z M95.3,65.9h19.9l-9.9-17.2L95.3,65.9z
					"/>
			</g>
			<g>
				<path class="st1" d="M100.2,61.4c-0.1,0-0.1,0-0.2,0c-0.1-0.1-0.2-0.3-0.1-0.4l3.8-6.5c0.1-0.1,0.3-0.2,0.4-0.1
					c0.1,0.1,0.2,0.3,0.1,0.4l-3.8,6.5C100.5,61.3,100.4,61.4,100.2,61.4z"/>
			</g>
		</g>
		<g>
			<path class="st1" d="M89.2,32.2c-0.2,0-0.3-0.1-0.3-0.3v-6.1c0-0.2,0.1-0.3,0.3-0.3c0.2,0,0.3,0.1,0.3,0.3v6.1
				C89.5,32,89.4,32.2,89.2,32.2z"/>
		</g>
		<g>
			<path class="st1" d="M89.2,35.9c-0.2,0-0.3-0.1-0.3-0.3V34c0-0.2,0.1-0.3,0.3-0.3c0.2,0,0.3,0.1,0.3,0.3v1.6
				C89.5,35.7,89.4,35.9,89.2,35.9z"/>
		</g>
	</g>
</g>
<g>
	<defs>
		<rect id="SVGID_1_" x="-163.2" y="808.9" width="115.6" height="172.2"/>
	</defs>
	<clipPath id="SVGID_2_">
		<use xlink:href="#SVGID_1_"  style="overflow:visible;"/>
	</clipPath>
	<g class="st2">
		<g>
			<path class="st3" d="M-142.2,924.1h-29.6c-1.3,0-2.5-0.5-3.4-1.4c-0.9-0.9-1.4-2-1.3-3.2c0-1.2,0.5-2.4,1.4-3.2
				c0.9-0.9,2.1-1.4,3.3-1.4h9.1c0-1.4,0.1-4.4,0.1-6v-57.4h-8.6c-3,0-5.5,0.3-7.4,0.8c-1.8,0.5-3.2,1.4-4.3,2.6
				c-1,1.1-3,3.8-3.9,6.4c-0.4,1.1-1.4,1.8-2.5,1.7c-1.3-0.1-2.4-1.2-2.4-2.5v-3.6c0-2.5,0-4.9-0.1-7.2c0-0.8-0.1-1.7-0.1-2.6
				c-0.1-1.6,0.4-3.1,1.5-4.2c1.1-1.1,2.6-1.8,4.1-1.8c0,0,0,0,0,0c1.5,0,3,0,4.5,0c3.2,0,6.4,0,9.4,0c3,0,5.7,0,8,0
				c2.3,0,4.4,0,6.4,0c1.9,0,4.3,0,7.3,0c3,0,6,0,9,0c3.1,0,6.3,0,9.6,0c1.5,0,3.1,0,4.6,0l0,0c0,0,0,0,0,0c1.6,0,3.1,0.7,4.2,1.8
				c1.1,1.2,1.6,2.7,1.5,4.3l0,0.1c-0.1,1.8-0.3,3.3-0.3,4.8c-0.1,1.5-0.1,3.1-0.2,4.8c0,1.1,0,2.3,0,3.6c0,1.3-1.1,2.4-2.4,2.5
				c-1.1,0.1-2.2-0.7-2.5-1.8c-0.8-2.6-2.8-5.3-3.7-6.4c-1-1.2-2.4-2.1-4.2-2.6c-1.8-0.5-4.3-0.8-7.4-0.8h-8.9v60.5
				c0,0.9,0,2.1,0,2.9h9.3c2.5,0,4.6,1.9,4.8,4.3c0.1,1.3-0.4,2.6-1.3,3.6C-139.8,923.7-141,924.1-142.2,924.1z M-172,916.3
				c-0.9,0-1.7,0.3-2.3,0.9c-0.6,0.6-0.9,1.4-0.9,2.2c0,0.8,0.3,1.6,0.9,2.2c0.6,0.7,1.5,1,2.4,1h29.6c0.9,0,1.7-0.3,2.3-0.9
				c0.7-0.7,1-1.5,0.9-2.5c-0.1-1.7-1.6-3-3.3-3h-10c-0.4,0-0.7-0.3-0.7-0.7c0,0,0-2.3,0-3.6v-61.2c0-0.4,0.3-0.7,0.7-0.7h9.6
				c3.2,0,5.8,0.3,7.8,0.9c2,0.6,3.7,1.6,4.9,3c1.1,1.2,3.1,4.1,4,6.8c0.2,0.5,0.6,0.8,1.1,0.8c0.6,0,1-0.5,1-1.1c0-1.3,0-2.5,0-3.6
				c0-1.7,0.1-3.3,0.2-4.9c0.1-1.5,0.2-3.1,0.3-4.9l0-0.1c0.1-1.2-0.3-2.3-1.1-3.2c-0.8-0.9-1.9-1.4-3.1-1.4l0,0c-1.5,0-3.1,0-4.6,0
				c-3.3,0-6.5,0-9.6,0c-3,0-6,0-9,0c-3,0-5.4,0-7.3,0c-1.9,0-4.1,0-6.4,0c-2.3,0-5,0-8,0c-3,0-6.2,0-9.4,0c-1.5,0-3,0-4.5,0
				c-1.2,0-2.3,0.5-3.1,1.3c-0.8,0.9-1.2,2-1.1,3.1c0.1,0.9,0.1,1.8,0.1,2.7c0.1,2.3,0.1,4.7,0.1,7.3v3.6c0,0.6,0.5,1.1,1,1.1
				c0.5,0,0.9-0.3,1.1-0.8c0.9-2.8,3.1-5.6,4.2-6.9c1.3-1.4,2.9-2.4,5-3c2-0.6,4.6-0.9,7.8-0.9h9.3c0.4,0,0.7,0.3,0.7,0.7v58.1
				c0,2.1-0.1,6.7-0.1,6.8c0,0.4-0.3,0.7-0.7,0.7H-172z"/>
		</g>
		<g>
			<path class="st3" d="M-89.5,923.7h-17.7c-0.8,0-1.7-0.3-2.3-1c-0.6-0.6-0.9-1.3-0.9-2.1c0-0.8,0.3-1.6,0.9-2.1
				c0.6-0.6,1.4-0.9,2.2-0.9h5.2c0-0.9,0-2.5,0-3.3v-34h-4.9c-1.8,0-3.3,0.2-4.3,0.5c-1,0.3-1.8,0.8-2.5,1.5
				c-0.6,0.6-1.8,2.2-2.3,3.7c-0.3,0.8-1,1.3-1.8,1.2c-1-0.1-1.7-0.8-1.7-1.8v-2.1c0-1.5,0-2.9-0.1-4.3c0-0.5,0-1-0.1-1.6
				c-0.1-1,0.3-2,1-2.7c0.7-0.7,1.7-1.2,2.7-1.2c0,0,0,0,0,0c0.9,0,1.8,0,2.7,0c1.9,0,3.8,0,5.6,0c1.8,0,3.4,0,4.8,0
				c1.4,0,2.6,0,3.8,0c1.1,0,2.6,0,4.4,0c3.6,0,7.2,0,11.1-0.1c0.9,0,1.8,0,2.7,0l0,0c0,0,0,0,0,0c1,0,2,0.4,2.7,1.2
				c0.7,0.8,1,1.8,1,2.8c-0.1,1.1-0.2,2-0.2,2.9c0,0.9-0.1,1.8-0.1,2.9c0,0.7,0,1.4,0,2.1c0,1-0.8,1.7-1.7,1.8
				c-0.8,0-1.6-0.5-1.8-1.3c-0.5-1.5-1.6-3.1-2.2-3.7c-0.6-0.7-1.4-1.2-2.4-1.5c-1.1-0.3-2.5-0.5-4.3-0.5h-5v35.8c0,0.4,0,1,0,1.5
				h5.3c1.7,0,3,1.3,3.1,2.9c0.1,0.9-0.3,1.7-0.9,2.4C-87.9,923.4-88.7,923.7-89.5,923.7z M-107.3,919c-0.4,0-0.8,0.2-1.2,0.5
				c-0.3,0.3-0.5,0.7-0.5,1.1c0,0.4,0.2,0.8,0.5,1.1c0.3,0.3,0.8,0.5,1.2,0.5h17.7c0.4,0,0.8-0.2,1.2-0.5c0.3-0.3,0.5-0.8,0.5-1.3
				c-0.1-0.9-0.8-1.5-1.7-1.5h-6c-0.4,0-0.7-0.3-0.7-0.7c0,0,0-1.4,0-2.2v-36.5c0-0.4,0.3-0.7,0.7-0.7h5.7c1.9,0,3.5,0.2,4.7,0.5
				c1.3,0.4,2.3,1,3.1,1.9c0.6,0.8,1.9,2.5,2.4,4.2c0.1,0.2,0.2,0.3,0.4,0.3c0.2,0,0.3-0.2,0.3-0.4c0-0.8,0-1.5,0-2.1
				c0-1,0.1-2,0.1-2.9c0-0.9,0.1-1.9,0.2-2.9c0.1-0.7-0.2-1.3-0.6-1.7c-0.4-0.5-1-0.7-1.6-0.7c0,0,0,0,0,0l0,0c-0.9,0-1.8,0-2.7,0
				c-3.9,0-7.5,0-11.1,0.1c-1.8,0-3.2,0-4.4,0c-1.2,0-2.4,0-3.8,0c-1.4,0-3,0-4.8,0c-1.8,0-3.7,0-5.6,0c-0.9,0-1.8,0-2.7,0
				c0,0,0,0,0,0c-0.6,0-1.2,0.2-1.6,0.7c-0.4,0.5-0.6,1-0.6,1.7c0,0.6,0.1,1.1,0.1,1.6c0.1,1.4,0.1,2.8,0.1,4.3v2.1
				c0,0.2,0.2,0.4,0.3,0.4c0.2,0,0.3-0.1,0.4-0.3c0.6-1.7,1.9-3.4,2.5-4.2c0.8-0.9,1.8-1.5,3.1-1.9c1.2-0.4,2.8-0.5,4.7-0.5h5.6
				c0.4,0,0.7,0.3,0.7,0.7v34.7c0,1.3,0,4,0,4c0,0.4-0.3,0.7-0.7,0.7H-107.3z M-80.9,874.2L-80.9,874.2L-80.9,874.2z"/>
		</g>
	</g>
</g>
<g>
	<g>
		<g>
			<path class="st1" d="M163.7,231.4h-13.4c-0.6,0-1.1-0.2-1.6-0.7c-0.4-0.4-0.6-0.9-0.6-1.5c0-0.6,0.2-1.1,0.6-1.5
				c0.4-0.4,0.9-0.6,1.5-0.6h4.1c0-0.6,0-2,0-2.7v-26h-3.9c-1.4,0-2.5,0.1-3.4,0.4c-0.8,0.2-1.5,0.6-2,1.2c-0.4,0.5-1.4,1.7-1.8,2.9
				c-0.2,0.5-0.6,0.8-1.1,0.8c-0.6,0-1.1-0.5-1.1-1.1v-1.6c0-1.1,0-2.2-0.1-3.3c0-0.4,0-0.8-0.1-1.2c0-0.7,0.2-1.4,0.7-1.9
				c0.5-0.5,1.2-0.8,1.9-0.8c0,0,0,0,0,0c0.7,0,1.4,0,2.1,0c1.4,0,2.9,0,4.3,0c1.4,0,2.6,0,3.6,0c1,0,2,0,2.9,0c0.8,0,2,0,3.3,0
				c1.3,0,2.7,0,4.1,0c1.4,0,2.9,0,4.3,0c0.7,0,1.4,0,2.1,0l0,0c0,0,0,0,0,0c0.7,0,1.4,0.3,1.9,0.8c0.5,0.5,0.7,1.2,0.7,2l0,0
				c-0.1,0.8-0.1,1.5-0.2,2.2c0,0.7-0.1,1.4-0.1,2.2c0,0.5,0,1,0,1.6c0,0.6-0.5,1.1-1.1,1.1c-0.5,0-1-0.3-1.2-0.8
				c-0.4-1.2-1.3-2.4-1.7-2.9c-0.5-0.6-1.1-0.9-1.9-1.2c-0.8-0.2-2-0.4-3.3-0.4h-4v27.4c0,0.4,0,1,0,1.3h4.2c1.1,0,2.1,0.9,2.2,2
				c0,0.6-0.2,1.2-0.6,1.6C164.8,231.1,164.2,231.4,163.7,231.4z M150.2,227.8c-0.4,0-0.8,0.2-1,0.4c-0.3,0.3-0.4,0.6-0.4,1
				c0,0.4,0.1,0.7,0.4,1c0.3,0.3,0.7,0.5,1.1,0.5h13.4c0.4,0,0.8-0.2,1-0.4c0.3-0.3,0.4-0.7,0.4-1.1c0-0.8-0.7-1.4-1.5-1.4h-4.5
				c-0.2,0-0.3-0.1-0.3-0.3c0,0,0-1,0-1.7v-27.7c0-0.2,0.1-0.3,0.3-0.3h4.3c1.4,0,2.6,0.1,3.5,0.4c0.9,0.3,1.7,0.7,2.2,1.4
				c0.5,0.6,1.4,1.8,1.8,3.1c0.1,0.2,0.3,0.4,0.5,0.4c0.3,0,0.5-0.2,0.5-0.5c0-0.6,0-1.1,0-1.6c0-0.8,0-1.5,0.1-2.2
				c0-0.7,0.1-1.4,0.2-2.2l0,0c0-0.5-0.1-1.1-0.5-1.5c-0.4-0.4-0.9-0.6-1.4-0.6l0,0c-0.7,0-1.4,0-2.1,0c-1.5,0-2.9,0-4.3,0
				c-1.4,0-2.7,0-4.1,0c-1.3,0-2.5,0-3.3,0c-0.9,0-1.9,0-2.9,0c-1,0-2.2,0-3.6,0c-1.4,0-2.8,0-4.3,0c-0.7,0-1.4,0-2.1,0
				c-0.5,0-1,0.2-1.4,0.6c-0.4,0.4-0.5,0.9-0.5,1.4c0,0.4,0,0.8,0.1,1.2c0,1,0.1,2.1,0.1,3.3v1.6c0,0.3,0.2,0.5,0.5,0.5
				c0.2,0,0.4-0.1,0.5-0.3c0.4-1.3,1.4-2.5,1.9-3.1c0.6-0.6,1.3-1.1,2.3-1.4c0.9-0.3,2.1-0.4,3.5-0.4h4.2c0.2,0,0.3,0.1,0.3,0.3
				v26.3c0,1,0,3,0,3.1c0,0.2-0.1,0.3-0.3,0.3H150.2z"/>
		</g>
		<g>
			<path class="st1" d="M187.5,231.2h-8c-0.4,0-0.8-0.2-1-0.4c-0.3-0.3-0.4-0.6-0.4-1c0-0.4,0.1-0.7,0.4-1c0.3-0.3,0.6-0.4,1-0.4
				h2.3c0-0.4,0-1.1,0-1.5v-15.4h-2.2c-0.8,0-1.5,0.1-2,0.2c-0.5,0.1-0.8,0.4-1.1,0.7c-0.3,0.3-0.8,1-1,1.7
				c-0.1,0.3-0.5,0.6-0.8,0.6c-0.4,0-0.8-0.4-0.8-0.8v-1c0-0.7,0-1.3,0-1.9c0-0.2,0-0.5,0-0.7c0-0.5,0.1-0.9,0.4-1.2
				c0.3-0.3,0.8-0.5,1.2-0.5c0,0,0,0,0,0c0.4,0,0.8,0,1.2,0c0.9,0,1.7,0,2.5,0c0.8,0,1.5,0,2.2,0c0.6,0,1.2,0,1.7,0c0.5,0,1.2,0,2,0
				c1.6,0,3.3,0,5,0c0.4,0,0.8,0,1.2,0l0,0c0,0,0,0,0,0c0.5,0,0.9,0.2,1.2,0.5c0.3,0.3,0.5,0.8,0.4,1.3c0,0.5-0.1,0.9-0.1,1.3
				c0,0.4,0,0.8,0,1.3c0,0.3,0,0.6,0,1c0,0.4-0.3,0.8-0.8,0.8c-0.4,0-0.7-0.2-0.8-0.6c-0.2-0.7-0.7-1.4-1-1.7
				c-0.3-0.3-0.6-0.5-1.1-0.7c-0.5-0.1-1.1-0.2-2-0.2h-2.3v16.2c0,0.2,0,0.5,0,0.7h2.4c0.8,0,1.4,0.6,1.4,1.3c0,0.4-0.1,0.8-0.4,1.1
				C188.2,231,187.9,231.2,187.5,231.2z M179.5,229.1c-0.2,0-0.4,0.1-0.5,0.2c-0.1,0.1-0.2,0.3-0.2,0.5c0,0.2,0.1,0.4,0.2,0.5
				c0.1,0.2,0.4,0.2,0.6,0.2h8c0.2,0,0.4-0.1,0.5-0.2c0.2-0.2,0.2-0.4,0.2-0.6c0-0.4-0.4-0.7-0.8-0.7h-2.7c-0.2,0-0.3-0.1-0.3-0.3
				c0,0,0-0.6,0-1v-16.5c0-0.2,0.1-0.3,0.3-0.3h2.6c0.9,0,1.6,0.1,2.1,0.2c0.6,0.2,1,0.5,1.4,0.9c0.3,0.3,0.9,1.1,1.1,1.9
				c0,0.1,0.1,0.1,0.2,0.1c0.1,0,0.2-0.1,0.2-0.2c0-0.3,0-0.7,0-1c0-0.5,0-0.9,0-1.3c0-0.4,0.1-0.8,0.1-1.3c0-0.3-0.1-0.6-0.3-0.8
				c-0.2-0.2-0.5-0.3-0.7-0.3c0,0,0,0,0,0l0,0c-0.4,0-0.8,0-1.2,0c-1.8,0-3.4,0-5,0c-0.8,0-1.5,0-2,0c-0.5,0-1.1,0-1.7,0
				c-0.6,0-1.3,0-2.2,0c-0.8,0-1.7,0-2.5,0c-0.4,0-0.8,0-1.2,0c0,0,0,0,0,0c-0.3,0-0.5,0.1-0.7,0.3c-0.2,0.2-0.3,0.5-0.3,0.7
				c0,0.3,0,0.5,0,0.7c0,0.6,0,1.3,0,2v1c0,0.1,0.1,0.2,0.2,0.2c0.1,0,0.1,0,0.2-0.1c0.3-0.8,0.8-1.6,1.2-1.9
				c0.4-0.4,0.8-0.7,1.4-0.9c0.6-0.2,1.3-0.2,2.1-0.2h2.5c0.2,0,0.3,0.1,0.3,0.3v15.7c0,0.6,0,1.8,0,1.8c0,0.2-0.1,0.3-0.3,0.3
				H179.5z M191.4,208.8L191.4,208.8L191.4,208.8z"/>
		</g>
	</g>
</g>
<rect x="337.7" y="808.9" class="st4" width="115.6" height="172.2"/>
<g>
	<g>
		<g>
			<path class="st1" d="M258.3,221.5C258.3,221.5,258.3,221.5,258.3,221.5c0,0-5,0-9.9-2c-6.6-2.7-10.2-7.6-10.4-14.2
				c-0.1-3.3,1.4-6.5,4.3-9c2.6-2.3,6.2-4,9.9-4.7c3-0.6,5.2-3,5.4-5.9l0.1-1.1c0.3-4.4,2.7-8.5,6.4-10.8c2.2-1.4,4.6-2.1,7.2-2.1
				c7.7,0,14.4,5,16.1,12.3c0.8,2.6,1.2,5.3,1.2,8.1c0,6.7-1.6,12.5-4.8,17.1c-2.5,3.7-6,6.6-10.5,8.8
				C266,221.5,258.4,221.5,258.3,221.5z M271.3,172.3c-2.4,0-4.7,0.7-6.8,2c-3.5,2.3-5.8,6.1-6.1,10.3l-0.1,1.1
				c-0.2,3.2-2.7,5.9-5.9,6.5c-3.6,0.7-7.1,2.3-9.6,4.5c-2,1.7-4.3,4.6-4.1,8.5c0.2,6.4,3.6,11,10,13.6c4.8,1.9,9.6,2,9.7,2
				c0.1,0,7.5,0,14.9-3.6c9.8-4.8,14.8-13.3,14.8-25.3c0-2.7-0.4-5.3-1.2-7.9c0,0,0,0,0,0C285.1,177.1,278.8,172.3,271.3,172.3z"/>
		</g>
		<g>
			<path class="st1" d="M271.2,188.9c-3.7,0-6.7-3-6.7-6.7c0-3.7,3-6.7,6.7-6.7s6.7,3,6.7,6.7C277.9,185.9,274.9,188.9,271.2,188.9z
				 M271.2,176.2c-3.3,0-6,2.7-6,6c0,3.3,2.7,6,6,6s6-2.7,6-6C277.3,178.9,274.5,176.2,271.2,176.2z"/>
		</g>
		<g>
			<path class="st1" d="M246.3,210.5c-3.1,0-5.6-2.5-5.6-5.6c0-3.1,2.5-5.6,5.6-5.6s5.6,2.5,5.6,5.6
				C251.9,208,249.3,210.5,246.3,210.5z M246.3,200c-2.7,0-4.9,2.2-4.9,4.9s2.2,4.9,4.9,4.9s4.9-2.2,4.9-4.9S249,200,246.3,200z"/>
		</g>
		<g>
			<path class="st1" d="M246.3,209c-2.2,0-4.1-1.8-4.1-4.1c0-2.2,1.8-4.1,4.1-4.1s4.1,1.8,4.1,4.1C250.3,207.2,248.5,209,246.3,209z
				 M246.3,201.5c-1.9,0-3.4,1.5-3.4,3.4c0,1.9,1.5,3.4,3.4,3.4s3.4-1.5,3.4-3.4C249.7,203.1,248.1,201.5,246.3,201.5z"/>
		</g>
		<g>
			<path class="st1" d="M257.2,218.7c-3.1,0-5.6-2.5-5.6-5.6c0-3.1,2.5-5.6,5.6-5.6c3.1,0,5.6,2.5,5.6,5.6
				C262.8,216.2,260.3,218.7,257.2,218.7z M257.2,208.2c-2.7,0-4.9,2.2-4.9,4.9s2.2,4.9,4.9,4.9c2.7,0,4.9-2.2,4.9-4.9
				S259.9,208.2,257.2,208.2z"/>
		</g>
		<g>
			<path class="st1" d="M257.2,217.2c-2.2,0-4.1-1.8-4.1-4.1c0-2.2,1.8-4.1,4.1-4.1c2.2,0,4.1,1.8,4.1,4.1
				C261.3,215.4,259.4,217.2,257.2,217.2z M257.2,209.7c-1.9,0-3.4,1.5-3.4,3.4c0,1.9,1.5,3.4,3.4,3.4c1.9,0,3.4-1.5,3.4-3.4
				C260.6,211.3,259.1,209.7,257.2,209.7z"/>
		</g>
		<g>
			<path class="st1" d="M270.8,214.7c-3.1,0-5.6-2.5-5.6-5.6c0-3.1,2.5-5.6,5.6-5.6s5.6,2.5,5.6,5.6
				C276.4,212.2,273.9,214.7,270.8,214.7z M270.8,204.2c-2.7,0-4.9,2.2-4.9,4.9s2.2,4.9,4.9,4.9c2.7,0,4.9-2.2,4.9-4.9
				S273.5,204.2,270.8,204.2z"/>
		</g>
		<g>
			<path class="st1" d="M270.8,213.2c-2.2,0-4.1-1.8-4.1-4.1c0-2.2,1.8-4.1,4.1-4.1c2.2,0,4.1,1.8,4.1,4.1
				C274.9,211.3,273.1,213.2,270.8,213.2z M270.8,205.7c-1.9,0-3.4,1.5-3.4,3.4c0,1.9,1.5,3.4,3.4,3.4c1.9,0,3.4-1.5,3.4-3.4
				C274.2,207.2,272.7,205.7,270.8,205.7z"/>
		</g>
		<g>
			<path class="st1" d="M279.5,203.6c-3.1,0-5.6-2.5-5.6-5.6s2.5-5.6,5.6-5.6s5.6,2.5,5.6,5.6S282.6,203.6,279.5,203.6z
				 M279.5,193.1c-2.7,0-4.9,2.2-4.9,4.9s2.2,4.9,4.9,4.9s4.9-2.2,4.9-4.9S282.3,193.1,279.5,193.1z"/>
		</g>
		<g>
			<path class="st1" d="M279.5,202.1c-2.2,0-4.1-1.8-4.1-4.1c0-2.2,1.8-4.1,4.1-4.1s4.1,1.8,4.1,4.1
				C283.6,200.3,281.8,202.1,279.5,202.1z M279.5,194.6c-1.9,0-3.4,1.5-3.4,3.4c0,1.9,1.5,3.4,3.4,3.4s3.4-1.5,3.4-3.4
				C283,196.1,281.4,194.6,279.5,194.6z"/>
		</g>
	</g>
</g>
<g>
	<g>
		<g>
			<g>
				<path class="st1" d="M255.4,72c-11.4,0-20.8-9.3-20.8-20.8s9.3-20.8,20.8-20.8c11.4,0,20.8,9.3,20.8,20.8S266.8,72,255.4,72z
					 M255.4,31.3c-11,0-20,9-20,20s9,20,20,20c11,0,20-9,20-20S266.4,31.3,255.4,31.3z"/>
			</g>
			<g>
				<path class="st1" d="M275.7,72c-11.4,0-20.8-9.3-20.8-20.8s9.3-20.8,20.8-20.8s20.8,9.3,20.8,20.8S287.2,72,275.7,72z
					 M275.7,31.3c-11,0-20,9-20,20s9,20,20,20s20-9,20-20S286.8,31.3,275.7,31.3z"/>
			</g>
		</g>
		<g>
			<path class="st1" d="M265.6,54.4c-11.4,0-20.8-9.3-20.8-20.8c0-11.4,9.3-20.8,20.8-20.8c11.4,0,20.8,9.3,20.8,20.8
				C286.4,45.1,277.1,54.4,265.6,54.4z M265.6,13.7c-11,0-20,9-20,20c0,11,9,20,20,20c11,0,20-9,20-20
				C285.6,22.7,276.7,13.7,265.6,13.7z"/>
		</g>
	</g>
</g>
</svg>
