<svg xmlns="http://www.w3.org/2000/svg" xmlns:xlink="http://www.w3.org/1999/xlink" width="2130" height="1367" viewBox="0 0 2130 1367">
  <defs>
    <clipPath id="clip-path">
      <rect id="長方形_264" data-name="長方形 264" width="259" height="522" transform="translate(0 160)" fill="#fff" stroke="#707070" stroke-width="1"/>
    </clipPath>
    <clipPath id="clip-path-2">
      <rect id="長方形_265" data-name="長方形 265" width="187" height="389" transform="translate(188 94)" fill="#fff" stroke="#707070" stroke-width="1"/>
    </clipPath>
    <clipPath id="clip-path-3">
      <rect id="長方形_186" data-name="長方形 186" width="23.28" height="21.946" fill="none"/>
    </clipPath>
    <clipPath id="clip-path-4">
      <rect id="長方形_294" data-name="長方形 294" width="22.41" height="23.898" fill="none"/>
    </clipPath>
    <linearGradient id="linear-gradient" x1="0.5" x2="0.5" y2="1" gradientUnits="objectBoundingBox">
      <stop offset="0" stop-color="#60c6bb"/>
      <stop offset="1" stop-color="#24cac3"/>
    </linearGradient>
    <clipPath id="clip-path-5">
      <rect id="長方形_300" data-name="長方形 300" width="387" height="274" transform="translate(2320 302)" fill="#fff"/>
    </clipPath>
    <linearGradient id="linear-gradient-2" x1="0.057" y1="-0.085" x2="0.57" y2="0.928" gradientUnits="objectBoundingBox">
      <stop offset="0" stop-color="#af87fe"/>
      <stop offset="1" stop-color="#c5b3fe"/>
    </linearGradient>
    <linearGradient id="linear-gradient-3" x1="0.464" y1="0.274" x2="1.318" y2="0.59" gradientUnits="objectBoundingBox">
      <stop offset="0" stop-color="#64c4b9"/>
      <stop offset="1" stop-color="#00cec9"/>
    </linearGradient>
    <linearGradient id="linear-gradient-5" x1="0.839" y1="0.851" x2="0.1" gradientUnits="objectBoundingBox">
      <stop offset="0" stop-color="#19e8e3"/>
      <stop offset="1" stop-color="#64c4b9"/>
    </linearGradient>
    <clipPath id="clip-path-6">
      <rect id="長方形_301" data-name="長方形 301" width="376" height="209" transform="translate(2964 915)" fill="#fff" stroke="#707070" stroke-width="1"/>
    </clipPath>
    <linearGradient id="linear-gradient-7" x1="0.5" x2="0.5" y2="0.971" gradientUnits="objectBoundingBox">
      <stop offset="0" stop-color="#fbef91"/>
      <stop offset="1" stop-color="#ffd600" stop-opacity="0"/>
    </linearGradient>
  </defs>
  <g id="グループ_316" data-name="グループ 316" transform="translate(-45 -2597)">
    <rect id="長方形_303" data-name="長方形 303" width="2130" height="1367" transform="translate(2175 3964) rotate(180)" fill="#b5b5b7"/>
    <g id="グループ_315" data-name="グループ 315" transform="translate(38 2734)">
      <g id="グループ_313" data-name="グループ 313" transform="translate(144 226)">
        <rect id="長方形_262" data-name="長方形 262" width="375" height="812" rx="16" transform="translate(25)" fill="#393535"/>
        <g id="グループ_273" data-name="グループ 273" transform="translate(-434 617)">
          <text id="Easy_Fast_Secure" data-name="Easy
Fast 
Secure" transform="translate(483 -286)" fill="#fff" font-size="32" font-family="Poppins-Bold, Poppins" font-weight="700"><tspan x="0" y="34">Easy</tspan><tspan x="0" y="77">Fast </tspan><tspan y="77" font-family="Poppins-ExtraLight, Poppins" font-weight="200"></tspan><tspan x="0" y="120">Secure</tspan></text>
          <circle id="楕円形_7" data-name="楕円形 7" cx="3.5" cy="3.5" r="3.5" transform="translate(558 -259)" fill="#fff"/>
          <circle id="楕円形_8" data-name="楕円形 8" cx="3.5" cy="3.5" r="3.5" transform="translate(555 -215)" fill="#fff"/>
          <circle id="楕円形_9" data-name="楕円形 9" cx="3.5" cy="3.5" r="3.5" transform="translate(599 -173)" fill="#fff"/>
        </g>
        <text id="_Bank" data-name=" Bank" transform="translate(272 62)" fill="#c0aafe" font-size="30" font-family="Poppins-Bold, Poppins" font-weight="700"><tspan x="0" y="0" xml:space="preserve"> B</tspan><tspan y="0" fill="#c2acfe">a</tspan><tspan y="0" fill="#77e9e2">nk</tspan></text>
        <path id="ic_wb_cloudy_24px" d="M27.7,12.641A10.728,10.728,0,0,0,7.653,9.779a8.58,8.58,0,0,0,.93,17.109h18.6A7.133,7.133,0,0,0,27.7,12.641Z" transform="translate(234.333 36)" fill="#c1adfe"/>
        <g id="マスクグループ_3" data-name="マスクグループ 3" transform="translate(25)" clip-path="url(#clip-path)">
          <g id="楕円形_94" data-name="楕円形 94" transform="translate(-163 201)" fill="none" stroke="#bda4fe" stroke-width="36">
            <circle cx="205" cy="205" r="205" stroke="none"/>
            <circle cx="205" cy="205" r="187" fill="none"/>
          </g>
        </g>
        <g id="マスクグループ_4" data-name="マスクグループ 4" transform="translate(25)" clip-path="url(#clip-path-2)">
          <g id="楕円形_95" data-name="楕円形 95" transform="translate(290 73)" fill="none" stroke="#77e9e2" stroke-width="8">
            <circle cx="205" cy="205" r="205" stroke="none"/>
            <circle cx="205" cy="205" r="201" fill="none"/>
          </g>
        </g>
        <rect id="長方形_1" data-name="長方形 1" width="327" height="62" rx="10" transform="translate(49 658)" fill="#4f4c4a"/>
        <text id="Already_Member_" data-name="Already Member?" transform="translate(213 758)" fill="#fff" font-size="16" font-family="Poppins-Medium, Poppins" font-weight="500"><tspan x="-71.32" y="0">Already Member?</tspan></text>
        <g id="グループ_1" data-name="グループ 1" transform="translate(38 -4)">
          <text id="Create_Account" data-name="Create Account" transform="translate(175 699)" fill="#fbef91" font-size="16" font-family="Poppins-Bold, Poppins" font-weight="700"><tspan x="-64.456" y="0">Create Account</tspan></text>
        </g>
      </g>
      <g id="グループ_312" data-name="グループ 312" transform="translate(-1231 71)">
        <rect id="長方形_289" data-name="長方形 289" width="375" height="812" rx="16" transform="translate(1873 -16)" fill="#393535"/>
        <rect id="長方形_290" data-name="長方形 290" width="73" height="40" rx="14" transform="translate(2117 596)" fill="#bfa8fe" opacity="0.51"/>
        <rect id="長方形_291" data-name="長方形 291" width="73" height="40" rx="7" transform="translate(2117 596)" fill="#bfa9fe"/>
        <text id="_Bank-2" data-name=" Bank" transform="translate(2120 45)" fill="#c0aafe" font-size="30" font-family="Poppins-Bold, Poppins" font-weight="700"><tspan x="0" y="0" xml:space="preserve"> B</tspan><tspan y="0" fill="#c2acfe">a</tspan><tspan y="0" fill="#77e9e2">nk</tspan></text>
        <path id="ic_wb_cloudy_24px-2" data-name="ic_wb_cloudy_24px" d="M27.7,12.641A10.728,10.728,0,0,0,7.653,9.779a8.58,8.58,0,0,0,.93,17.109h18.6A7.133,7.133,0,0,0,27.7,12.641Z" transform="translate(2082.333 19)" fill="#c1adfe"/>
        <g id="グループ_295" data-name="グループ 295" transform="translate(1912 -90.821)">
          <g id="グループ_286" data-name="グループ 286" transform="translate(51 187.718)">
            <g id="グループ_285" data-name="グループ 285" transform="translate(0 47.182)">
              <path id="パス_593" data-name="パス 593" d="M229.56,124.567s9.007-10.316,10.523-14.934,5.719-12.61,6.763-11.081-2.352,9.787-2.352,9.787,8.643-12.954,11.324-11.288,4.94,6.92,2.774,10.058-17.779,21.318-17.779,21.318Z" transform="translate(-106.493 -57.917)" fill="#fff"/>
              <path id="パス_594" data-name="パス 594" d="M240.643,128.678a.415.415,0,0,1-.136,0l-11.252-3.832a.429.429,0,0,1-.272-.293.415.415,0,0,1,.086-.393c.093-.1,8.972-10.309,10.437-14.791,1.251-3.81,4.833-11.274,6.7-11.552a.829.829,0,0,1,.815.365c.715,1.044-.179,4.361-1.087,6.977,2.86-3.939,7.749-9.958,9.944-8.579a9.222,9.222,0,0,1,3.66,5.719,6.312,6.312,0,0,1-.772,4.918c-2.145,3.117-17.157,20.588-17.8,21.332A.436.436,0,0,1,240.643,128.678Zm-10.523-4.454,10.387,3.539c1.773-2.066,15.556-18.144,17.565-21.046a5.519,5.519,0,0,0,.636-4.289,8.486,8.486,0,0,0-3.267-5.169c-.972-.593-4.947,2.466-10.723,11.166a.422.422,0,0,1-.715-.4c1.387-3.338,3.045-8.457,2.395-9.379h0c-.922,0-4.418,6.112-6.012,10.966C239,113.744,231.928,122.115,230.12,124.224Z" transform="translate(-106.324 -57.767)" fill="#231f20"/>
              <path id="パス_595" data-name="パス 595" d="M154.21,238.666l1.516,11.081s-67.806.8-67,0,0-17.057,0-17.057Z" transform="translate(-66.336 -96.633)" fill="#231f20"/>
              <path id="パス_596" data-name="パス 596" d="M105.038,250.364c-16.621,0-16.735-.279-16.871-.608a.443.443,0,0,1,.093-.479c.407-.765.25-9.2-.122-16.735a.422.422,0,0,1,.458-.443l65.49,5.976a.429.429,0,0,1,.379.365l1.516,11.081a.422.422,0,0,1-.1.329.415.415,0,0,1-.315.15c-.172,0-16.864.2-33.385.3C115.082,250.343,109.484,250.364,105.038,250.364Zm-15.949-1.087c4.211.436,41.012.172,65.983-.122l-1.43-10.266-64.661-5.9C89.275,238.462,89.575,246.9,89.089,249.278Z" transform="translate(-66.169 -96.464)" fill="#231f20"/>
              <path id="パス_597" data-name="パス 597" d="M129.874,50.835c-.157-.257-.315-.515-.479-.772a15.906,15.906,0,0,0-14-7.149,30.74,30.74,0,0,0-6.741,1.037c-2.223.629-3,2.616-4.883,3.574a3.274,3.274,0,0,1-1.265.25,12.625,12.625,0,0,0-4.018,1.008c-3.474,1.508-5.8,6.341-7.049,9.687a77.807,77.807,0,0,0-4.325,20.4c-.579,6.434-1.337,13.64,1.1,19.824a55.046,55.046,0,0,0,10.144,16.814c8.085,8.872,20.224,14.133,32.169,13.168,7.149-.579,13.919-3.231,20.217-6.591,3.617-1.93,7.192-4.168,9.658-7.442a17.7,17.7,0,0,0-.715-21.446c-5.383-6.434-13.854-9.179-19.223-15.727C134.549,70.2,134.763,58.92,129.874,50.835Z" transform="translate(-65.713 -42.519)" fill="#fff"/>
              <path id="パス_598" data-name="パス 598" d="M127.605,129.1a41.163,41.163,0,0,1-29.725-13.411A54.716,54.716,0,0,1,87.665,98.744c-2.395-6.055-1.759-13.1-1.194-19.3l.064-.715a77.686,77.686,0,0,1,4.339-20.51c1.38-3.689,3.767-8.407,7.285-9.937a13.039,13.039,0,0,1,4.153-1.037h.114a2.709,2.709,0,0,0,.979-.193,7.549,7.549,0,0,0,1.916-1.551,6.727,6.727,0,0,1,3.045-2.059,30.94,30.94,0,0,1,6.841-1.058A16.392,16.392,0,0,1,129.593,49.7c.172.257.329.522.486.779h0c2.223,3.689,3.41,8.078,4.568,12.317,1.38,5.083,2.809,10.337,6.012,14.3,2.681,3.288,6.234,5.669,9.672,7.964s6.856,4.59,9.544,7.792c5.119,6.1,5.433,15.727.715,21.982-2.6,3.446-6.434,5.719-9.794,7.556-7.428,3.96-14.09,6.127-20.381,6.641C129.486,129.062,128.542,129.1,127.605,129.1ZM115.817,43.206h-.572a30.454,30.454,0,0,0-6.641,1.044,6.112,6.112,0,0,0-2.674,1.844,8.578,8.578,0,0,1-2.145,1.709,3.481,3.481,0,0,1-1.3.286h-.122a12.153,12.153,0,0,0-3.882.972c-3.2,1.408-5.49,5.912-6.777,9.486a76.984,76.984,0,0,0-4.289,20.288l-.064.715c-.55,6.119-1.18,13.054,1.137,18.93a54.009,54.009,0,0,0,10.058,16.678c8.171,8.965,20.374,13.954,31.848,13.032,6.169-.5,12.725-2.638,20.017-6.541,3.31-1.759,7.02-4.01,9.522-7.32,4.475-5.933,4.168-15.127-.715-20.932-2.609-3.11-6.048-5.412-9.372-7.635-3.489-2.33-7.092-4.74-9.858-8.135-3.31-4.06-4.768-9.4-6.169-14.569-1.137-4.189-2.316-8.514-4.475-12.1h0c-.15-.257-.307-.508-.472-.758A15.541,15.541,0,0,0,115.817,43.206Z" transform="translate(-65.546 -42.368)" fill="#231f20"/>
              <path id="パス_599" data-name="パス 599" d="M82.046,207.127c-2.423-15.727-11.638-80.452-1.037-90.789,12.089-11.8,45.33-11.281,51.421-.615,3.31,5.783,12.618,15.52,13.332,28.173,1.015,17.951,6.362,51.728,7.642,63.245Z" transform="translate(-62.715 -60.969)" fill="#bea5fe"/>
              <path id="パス_600" data-name="パス 600" d="M119.02,210.358,111.6,118.94l18.88,1.995,10.266,89.424Z" transform="translate(-72.86 -64.2)" fill="#231f20"/>
              <path id="パス_601" data-name="パス 601" d="M140.574,210.616H118.863a.429.429,0,0,1-.422-.386L111,118.819a.415.415,0,0,1,.465-.45l18.88,1.995a.429.429,0,0,1,.379.372l10.3,89.41a.415.415,0,0,1-.1.329.436.436,0,0,1-.35.143Zm-21.332-.844H140.1l-10.173-88.645-18.036-1.909Z" transform="translate(-72.688 -64.036)" fill="#231f20"/>
              <path id="パス_602" data-name="パス 602" d="M128.723,92.695l1.072,11.8s-3.574,4.118-8.407,4.5c-7.864.636-10.473-6.5-10.473-6.5-.307-5.469-.658-10.93-.951-16.392-.2-3.725-2.2-11.381,1.358-13.876.987-.715,2.145-1.13,3.153-1.766a9.629,9.629,0,0,0,4.382-9.179c1.323,1.616,2.731,3.3,4.661,4.1a12.939,12.939,0,0,0,5.083.636c1.7,0,3.8-.379,5.469-.057,1.787.35,1.23,0,1.694,1.544.55,1.866.279,4.4.4,6.348.214,3.517.522,7.056.522,10.58C136.358,90.636,128.723,92.695,128.723,92.695Z" transform="translate(-72.183 -47.763)" fill="#fff"/>
              <path id="パス_603" data-name="パス 603" d="M120.267,109.308c-7.342,0-9.872-6.748-9.9-6.82a.365.365,0,0,1,0-.122c-.143-2.466-.286-4.925-.436-7.392q-.265-4.489-.522-9a25.055,25.055,0,0,0-.286-2.752c-.508-3.953-1.194-9.372,1.83-11.5a14.432,14.432,0,0,1,1.816-1.037c.458-.236.929-.472,1.358-.715a9.25,9.25,0,0,0,4.182-8.757.429.429,0,0,1,.25-.443.422.422,0,0,1,.5.122c1.222,1.494,2.616,3.188,4.489,3.968a12.868,12.868,0,0,0,4.925.608c.543,0,1.122-.05,1.737-.093a15.012,15.012,0,0,1,3.81.043l.651.114c.851.15,1.029.243,1.187.987a7.317,7.317,0,0,0,.179.715,15.913,15.913,0,0,1,.386,4.475v1.973c.05.829.107,1.659.164,2.488.172,2.659.357,5.4.357,8.114-.315,5.719-6.434,8.071-7.942,8.579l1.051,11.438a.422.422,0,0,1-.1.315c-.15.172-3.76,4.254-8.693,4.647Q120.76,109.308,120.267,109.308Zm-9.086-7.056a9.811,9.811,0,0,0,10.008,6.169c4.111-.329,7.349-3.574,8.007-4.232l-1.072-11.617a.422.422,0,0,1,.315-.443c.071,0,7.342-2.059,7.656-7.864,0-2.652-.179-5.383-.357-8.028-.057-.836-.107-1.666-.157-2.495-.043-.636-.036-1.308-.036-2.023a15.626,15.626,0,0,0-.35-4.232,7.548,7.548,0,0,1-.2-.808,2.382,2.382,0,0,0-.064-.265,2.4,2.4,0,0,1-.436-.057l-.672-.114a14.255,14.255,0,0,0-3.574,0c-.629.043-1.222.086-1.787.093a13.233,13.233,0,0,1-5.254-.665,11.116,11.116,0,0,1-4.01-3.317,10.158,10.158,0,0,1-4.64,8.285c-.465.286-.951.536-1.43.772a14.69,14.69,0,0,0-1.716.979c-2.6,1.83-1.952,6.956-1.48,10.723.136,1.037.257,2.016.3,2.817q.236,4.489.522,8.993.222,3.667.429,7.327Z" transform="translate(-72.026 -47.606)" fill="#231f20"/>
              <path id="パス_604" data-name="パス 604" d="M113.255,85.123a6.182,6.182,0,0,0-6.784-3.646c-3.367.865-2.952,4.74-1.637,7.149a6.269,6.269,0,0,0,8.579,2.423" transform="translate(-70.655 -53.481)" fill="#fff"/>
              <path id="パス_605" data-name="パス 605" d="M110.142,92.1a6.691,6.691,0,0,1-5.855-3.46,7.039,7.039,0,0,1-.665-5.655A3.653,3.653,0,0,1,106.2,80.9a6.593,6.593,0,0,1,7.285,3.91.425.425,0,1,1-.8.286,5.719,5.719,0,0,0-6.277-3.381,2.859,2.859,0,0,0-2,1.608c-.629,1.43-.136,3.517.629,4.9a5.841,5.841,0,0,0,8.007,2.266.415.415,0,0,1,.579.157.422.422,0,0,1-.157.579,6.784,6.784,0,0,1-3.317.872Z" transform="translate(-70.487 -53.311)" fill="#231f20"/>
              <path id="パス_606" data-name="パス 606" d="M135,76.47s4.947,5.576,4.118,6.77-3.66.872-3.66.872" transform="translate(-79.532 -52.091)" fill="#fff"/>
              <path id="パス_608" data-name="パス 608" d="M132.477,104.527s-4.411,1.251-10.087-1.737c0,0,2.774,8.114,10.666,8.128Z" transform="translate(-75.937 -59.595)" fill="#231f20"/>
              <path id="パス_609" data-name="パス 609" d="M132.887,111.17h0c-8.1,0-11.038-8.328-11.066-8.414a.415.415,0,0,1,.129-.458.422.422,0,0,1,.472-.057c5.455,2.86,9.722,1.723,9.765,1.709a.422.422,0,0,1,.357.057.429.429,0,0,1,.186.315l.579,6.384a.422.422,0,0,1-.422.465Zm-9.815-7.685c1.015,2.066,3.839,6.555,9.351,6.806l-.493-5.44a15.248,15.248,0,0,1-8.857-1.365Z" transform="translate(-75.768 -59.425)" fill="#231f20"/>
              <ellipse id="楕円形_97" data-name="楕円形 97" cx="0.822" cy="1.873" rx="0.822" ry="1.873" transform="translate(50.773 25.991)" fill="#231f20"/>
              <ellipse id="楕円形_98" data-name="楕円形 98" cx="0.822" cy="1.873" rx="0.822" ry="1.873" transform="translate(58.353 25.614) rotate(-3.22)" fill="#231f20"/>
              <path id="パス_611" data-name="パス 611" d="M181.189,148.543c3.088-1.544,27.651-28.452,27.651-28.452l14.3,11.974c-.257,1.966-22.7,48.9-35.844,46.51s-41.334-19.216-41.334-19.216l6.434-40.419S178.094,150.087,181.189,148.543Z" transform="translate(-82.657 -64.2)" fill="#bea5fe"/>
              <path id="パス_612" data-name="パス 612" d="M177.826,207.127a.422.422,0,0,1-.415-.35l-11.174-64.725a.424.424,0,1,1,.836-.143l11.145,64.725a.415.415,0,0,1-.343.486Z" transform="translate(-88.437 -70.649)" fill="#231f20"/>
              <path id="パス_613" data-name="パス 613" d="M129.691,205.689c.05-.408,3.31-.858,3.775-.994,1.651-.486,3.381-.8,5.068-1.144,3.281-.658,6.791-1.38,10.151-1.079,5.9.536-1.344,4.289-1.344,4.289s13.683-3.489,12.868,0-7.249,6.713-11.274,7.785-20.4,0-20.4,0Z" transform="translate(-77.69 -87.997)" fill="#fff"/>
              <path id="パス_614" data-name="パス 614" d="M141.659,215.261c-5.876,0-12.868-.45-13.3-.479a.45.45,0,0,1-.3-.15.436.436,0,0,1-.093-.322s1.129-8.793,1.137-8.857h0c.064-.493.651-.715,3.274-1.18.386-.071.715-.129.808-.164,1.43-.415,2.924-.715,4.368-1l.915-.186a35.7,35.7,0,0,1,10.087-1.051c1.058.1,2.488.343,2.681,1.323.157.8-.715,1.68-1.659,2.4,3.4-.715,9.093-1.651,10.537-.236a1.323,1.323,0,0,1,.35,1.323c-.851,3.682-7.277,6.949-11.574,8.092A35.765,35.765,0,0,1,141.659,215.261Zm-12.8-1.294c2.659.164,16.271.929,19.816,0,4.132-1.1,10.237-4.289,10.966-7.47a.486.486,0,0,0-.122-.529c-1.23-1.208-8.164,0-12.246,1.037a.422.422,0,0,1-.493-.265.415.415,0,0,1,.2-.522c1.744-.908,3.574-2.266,3.424-2.86-.043-.222-.572-.522-1.93-.643a35.03,35.03,0,0,0-9.844,1.037l-.915.186c-1.43.279-2.9.572-4.289.987-.129.036-.472.1-.894.179a17.632,17.632,0,0,0-2.6.6C129.8,206.675,129.077,212.33,128.862,213.967ZM129.942,205.56Z" transform="translate(-77.526 -87.825)" fill="#231f20"/>
              <path id="パス_615" data-name="パス 615" d="M73.959,123.56c-.279.715-25.871,61.587-12.868,69.572s53.466,4.89,53.466,4.89l-1.68-18.043-32.491-4.361Z" transform="translate(-57.409 -65.517)" fill="#bea5fe"/>
              <path id="パス_616" data-name="パス 616" d="M117.627,200.325h-.071l-38.117-6.041a.424.424,0,1,1,.136-.836l38.117,6.041a.422.422,0,0,1,.35.479.415.415,0,0,1-.415.357Z" transform="translate(-63.589 -85.442)" fill="#231f20"/>
              <path id="パス_617" data-name="パス 617" d="M86.671,180.057a.422.422,0,0,1-.422-.422c-.107-10.08,2.674-35.465,2.7-35.744a.436.436,0,0,1,.472-.372.422.422,0,0,1,.372.465c0,.257-2.8,25.593-2.7,35.622a.415.415,0,0,1-.415.429Z" transform="translate(-65.631 -71.208)" fill="#231f20"/>
              <path id="パス_622" data-name="パス 622" d="M147.18,207.247c3-.951,5.6-2.8,8.307-4.4a19.208,19.208,0,0,1,7.092-2.86,27.244,27.244,0,0,1,2.86,0c.836,0,2.009-.336,2.581.5,1.108,1.608.264,5.612-5.955,9.7" transform="translate(-83.005 -87.288)" fill="#fff"/>
              <path id="パス_623" data-name="パス 623" d="M161.9,210.465a.422.422,0,0,1-.229-.772c3.431-2.259,5.655-4.847,6.1-7.1a2.609,2.609,0,0,0-.264-2.009c-.3-.443-.894-.429-1.7-.357h-.508a11.454,11.454,0,0,1-1.222,0,7.982,7.982,0,0,0-1.6,0,19.008,19.008,0,0,0-6.927,2.8c-.558.329-1.115.672-1.673,1.015a30.91,30.91,0,0,1-6.727,3.431.429.429,0,0,1-.529-.279.422.422,0,0,1,.272-.529,30.218,30.218,0,0,0,6.541-3.346l1.68-1.022a19.984,19.984,0,0,1,7.242-2.91,8.671,8.671,0,0,1,1.773,0,10.051,10.051,0,0,0,1.137,0h.465a2.5,2.5,0,0,1,2.481.715,3.474,3.474,0,0,1,.393,2.652c-.286,1.43-1.5,4.375-6.47,7.635A.393.393,0,0,1,161.9,210.465Z" transform="translate(-82.837 -87.126)" fill="#231f20"/>
              <path id="パス_651" data-name="パス 651" d="M251.769,118.634h0a.436.436,0,0,1-.4-.45c.186-3.639-1.323-5.126-1.337-5.14a.422.422,0,0,1,0-.593.415.415,0,0,1,.593,0c.071.064,1.816,1.73,1.608,5.8a.429.429,0,0,1-.465.386Z" transform="translate(-112.295 -62.314)" fill="#231f20"/>
            </g>
            <g id="グループ_277" data-name="グループ 277" transform="translate(89.002 0)">
              <rect id="長方形_281" data-name="長方形 281" width="84.06" height="53.786" rx="10.35" transform="matrix(0.974, -0.227, 0.227, 0.974, 0, 19.067)" fill="#77e9e2"/>
              <rect id="長方形_282" data-name="長方形 282" width="84.06" height="10.693" transform="matrix(0.974, -0.227, 0.227, 0.974, 3.042, 32.132)" fill="#393432"/>
              <rect id="長方形_283" data-name="長方形 283" width="84.06" height="53.786" rx="10.35" transform="translate(22.504 23.7)" fill="#bea5fe"/>
              <g id="グループ_275" data-name="グループ 275" transform="translate(30.899 55.905) rotate(-11)">
                <rect id="長方形_268" data-name="長方形 268" width="9.784" height="8.365" rx="4.182" transform="translate(1.793 0) rotate(12.38)" fill="#fff"/>
                <path id="パス_531" data-name="パス 531" d="M3.168.29A1.827,1.827,0,0,1,3.56.333L9.388,1.611a1.909,1.909,0,0,1,1.478,2.277L9.894,8.326a1.913,1.913,0,0,1-1.866,1.5,2.129,2.129,0,0,1-.412-.043L1.792,8.5A1.909,1.909,0,0,1,.334,6.229L1.31,1.791A1.913,1.913,0,0,1,3.175.29m0-.29h0A2.215,2.215,0,0,0,1.027,1.729L.051,6.166A2.2,2.2,0,0,0,1.729,8.784l5.825,1.282a2.438,2.438,0,0,0,.474.051,2.215,2.215,0,0,0,2.148-1.729l.972-4.437A2.2,2.2,0,0,0,9.471,1.329L3.646.051A2.109,2.109,0,0,0,3.175,0Z" transform="translate(0.081 0.076)" fill="#231f20"/>
                <rect id="長方形_269" data-name="長方形 269" width="8.365" height="0.392" transform="translate(3.022 8.836) rotate(-77.62)" fill="#d1d3d4"/>
                <rect id="長方形_270" data-name="長方形 270" width="8.365" height="0.392" transform="translate(6.15 9.522) rotate(-77.62)" fill="#d1d3d4"/>
                <rect id="長方形_271" data-name="長方形 271" width="0.392" height="9.784" transform="translate(1.341 2.059) rotate(-77.62)" fill="#d1d3d4"/>
                <rect id="長方形_272" data-name="長方形 272" width="0.392" height="9.784" transform="translate(0.366 6.508) rotate(-77.62)" fill="#d1d3d4"/>
                <rect id="長方形_273" data-name="長方形 273" width="0.392" height="3.101" transform="translate(1.035 3.464) rotate(-77.62)" fill="#d1d3d4"/>
                <rect id="長方形_274" data-name="長方形 274" width="0.392" height="3.101" transform="translate(0.677 5.094) rotate(-77.62)" fill="#d1d3d4"/>
                <rect id="長方形_275" data-name="長方形 275" width="0.404" height="3.289" transform="translate(7.376 4.86) rotate(-77.62)" fill="#d1d3d4"/>
                <rect id="長方形_276" data-name="長方形 276" width="0.404" height="3.289" transform="translate(7.019 6.491) rotate(-77.62)" fill="#d1d3d4"/>
              </g>
              <g id="グループ_1-2" data-name="グループ 1" transform="translate(89.085 30.535)">
                <rect id="Rectangle" width="2.965" height="4.57" transform="translate(3.505 0.622)" fill="#f26122"/>
                <path id="Path" d="M3.824,2.907A2.84,2.84,0,0,1,4.986.622,3.215,3.215,0,0,0,.818.935a2.788,2.788,0,0,0,0,3.945,3.215,3.215,0,0,0,4.168.313A2.84,2.84,0,0,1,3.824,2.907Z" transform="translate(0 0)" fill="#ea1d25"/>
                <path id="Path-2" data-name="Path" d="M4.983,2.905A2.9,2.9,0,0,1,3.249,5.518,3.233,3.233,0,0,1,0,5.19a2.8,2.8,0,0,0,.517-4.08A2.94,2.94,0,0,0,0,.62,3.233,3.233,0,0,1,3.249.292,2.9,2.9,0,0,1,4.983,2.905Z" transform="translate(4.986 0.002)" fill="#f69e1e"/>
              </g>
              <text id="_4908" data-name="4908" transform="translate(83.495 70.187)" fill="#fff" font-size="4" font-family="Rubik-Regular, Rubik"><tspan x="0" y="0">4908</tspan></text>
              <circle id="楕円形_7-2" data-name="楕円形 7" cx="0.763" cy="0.763" r="0.763" transform="translate(72.308 69.238)" fill="#fff"/>
              <circle id="楕円形_10" data-name="楕円形 10" cx="1.017" cy="1.017" r="1.017" transform="translate(75.868 69.238)" fill="#fff"/>
              <circle id="楕円形_8-2" data-name="楕円形 8" cx="1.017" cy="1.017" r="1.017" transform="translate(68.241 69.238)" fill="#fff"/>
              <circle id="楕円形_9-2" data-name="楕円形 9" cx="0.763" cy="0.763" r="0.763" transform="translate(64.681 69.238)" fill="#fff"/>
              <rect id="長方形_17" data-name="長方形 17" width="37.118" height="2.542" rx="1.271" transform="translate(62.139 44.832)" fill="#fff" opacity="0.296"/>
              <rect id="長方形_18" data-name="長方形 18" width="21.864" height="2.542" rx="1.271" transform="translate(62.139 49.916)" fill="#fff" opacity="0.296"/>
              <rect id="長方形_19" data-name="長方形 19" width="36.61" height="2.542" rx="1.271" transform="translate(62.139 55.001)" fill="#fff" opacity="0.296"/>
              <rect id="長方形_20" data-name="長方形 20" width="36.61" height="2.542" rx="1.271" transform="translate(62.139 60.086)" fill="#fff" opacity="0.296"/>
            </g>
          </g>
          <text id="Welcome_to_Cloud_Bank" data-name="Welcome to 
Cloud Bank" transform="translate(144.318 431.821)" fill="#fff" font-size="17" font-family="Poppins-Medium, Poppins" font-weight="500"><tspan x="-53.584" y="0">Welcome to </tspan><tspan x="-49.071" y="26">Cloud Bank</tspan></text>
        </g>
        <g id="グループ_296" data-name="グループ 296" transform="translate(1873 9)">
          <rect id="長方形_284" data-name="長方形 284" width="263" height="40" rx="7" transform="translate(56 435)" fill="#4f4c4a"/>
          <text id="身分證字號" transform="translate(60 428)" fill="#fff" font-size="12" font-family="YuGothicUI-Bold, Yu Gothic UI" font-weight="700"><tspan x="0" y="0">身分證字號</tspan></text>
        </g>
        <g id="グループ_297" data-name="グループ 297" transform="translate(1873 9)">
          <rect id="長方形_286" data-name="長方形 286" width="263" height="40" rx="7" transform="translate(54 511)" fill="#4f4c4a"/>
          <text id="用戶代號" transform="translate(60 504)" fill="#fff" font-size="12" font-family="YuGothicUI-Bold, Yu Gothic UI" font-weight="700"><tspan x="0" y="0">用戶代號</tspan></text>
        </g>
        <g id="グループ_298" data-name="グループ 298" transform="translate(1873 -5.211)">
          <text id="Or_log_in_using_Face_ID_" data-name="Or log in using Face ID " transform="translate(188 748)" fill="#77e9e2" font-size="9" font-family="SegoeUI, Segoe UI"><tspan x="-46.226" y="0">Or log in using Face ID </tspan></text>
          <g id="グループ_293" data-name="グループ 293" transform="translate(-0.894)">
            <g id="グループ_57" data-name="グループ 57" transform="translate(171.894 692.219)">
              <path id="パス_147" data-name="パス 147" d="M961.511,2323.7v14.913c-.019-.044-.039-.089-.056-.134a.863.863,0,0,0-1.282-.424.888.888,0,0,0-.4.8q0,1.79,0,3.579a4.493,4.493,0,0,1-.041.69,3.619,3.619,0,0,1-2.006,2.787,3.791,3.791,0,0,1-1.783.4c-1.209,0-2.419,0-3.629,0a.886.886,0,0,0-.891.6.868.868,0,0,0,.836,1.137q1.955,0,3.91,0a5.21,5.21,0,0,0,.656-.057,5.4,5.4,0,0,0,4.555-4.209c.058-.267.091-.54.135-.81v5.113H927.694V2314.26h5.11c-.27.045-.542.079-.809.135a5.368,5.368,0,0,0-4.2,4.554,17.335,17.335,0,0,0-.067,1.909c-.01.89-.007,1.781,0,2.672a.868.868,0,0,0,1.137.822.889.889,0,0,0,.6-.892c0-1.269-.014-2.541.007-3.81a3.675,3.675,0,0,1,3.636-3.646c.693-.015,1.386,0,2.079,0,.594,0,1.188.006,1.781,0a.871.871,0,0,0,.85-1.142.961.961,0,0,0-.655-.6h14.914c-.045.019-.088.039-.134.057a.863.863,0,0,0-.425,1.28.889.889,0,0,0,.8.4c1.269,0,2.54-.016,3.809.005a3.674,3.674,0,0,1,3.64,3.638c.016.8,0,1.6.005,2.407,0,.483-.007.967,0,1.451a.872.872,0,0,0,1.143.848A.96.96,0,0,0,961.511,2323.7Zm-26.553,24.322v.026c.682,0,1.364.007,2.046,0a.869.869,0,0,0,.81-1.145.893.893,0,0,0-.9-.593c-1.321,0-2.64.015-3.96-.015a3.427,3.427,0,0,1-2.23-.906,3.681,3.681,0,0,1-1.263-2.879c0-1.21,0-2.42,0-3.629a1.173,1.173,0,0,0-.082-.448.852.852,0,0,0-.958-.5.875.875,0,0,0-.694.867c0,1.281-.011,2.563.006,3.844a5.869,5.869,0,0,0,.133,1.143,5.367,5.367,0,0,0,4.837,4.229C933.449,2348.061,934.2,2348.018,934.958,2348.018Zm9.948-6.5a8.516,8.516,0,0,0,1.963-.271,8.348,8.348,0,0,0,3.681-2.033.887.887,0,0,0-.379-1.515.977.977,0,0,0-.928.295,6.88,6.88,0,0,1-6.636,1.471,6.318,6.318,0,0,1-2.695-1.532.89.89,0,1,0-1.182,1.326A8.642,8.642,0,0,0,944.906,2341.521Zm1.491-11.343c0-1.05,0-2.1,0-3.15a.865.865,0,0,0-.464-.8.826.826,0,0,0-.892.021.9.9,0,0,0-.426.822q0,3.051,0,6.1c0,.455-.177.637-.619.645-.2,0-.4,0-.594,0a.893.893,0,0,0-.859.821.874.874,0,0,0,.733.931,5.188,5.188,0,0,0,.806.02,2.354,2.354,0,0,0,1.348-.421,2.308,2.308,0,0,0,.966-1.993C946.4,2332.18,946.4,2331.179,946.4,2330.179Zm-9.487-1.946h.016c0,.451-.023.9.007,1.35a.789.789,0,0,0,.563.707.762.762,0,0,0,.834-.2.963.963,0,0,0,.274-.719c0-.764,0-1.528,0-2.292a1.407,1.407,0,0,0-.025-.262.846.846,0,0,0-1-.684.9.9,0,0,0-.666.909C936.905,2327.441,936.91,2327.837,936.91,2328.233Zm13.938-.012h0c0,.412-.007.825,0,1.236a.84.84,0,1,0,1.679.028c.016-.84.02-1.682,0-2.522a.845.845,0,0,0-1.02-.826.868.868,0,0,0-.654.814C950.838,2327.374,950.848,2327.8,950.848,2328.221Z" transform="translate(-927.694 -2314.26)" fill="none"/>
              <path id="パス_148" data-name="パス 148" d="M937.166,2314.26a.961.961,0,0,1,.655.6.871.871,0,0,1-.849,1.142c-.594.009-1.188,0-1.782,0-.693,0-1.386-.01-2.078,0a3.675,3.675,0,0,0-3.636,3.646c-.021,1.269,0,2.541-.007,3.81a.889.889,0,0,1-.6.892.868.868,0,0,1-1.137-.822c-.007-.891-.01-1.781,0-2.672a17.365,17.365,0,0,1,.067-1.909,5.368,5.368,0,0,1,4.2-4.554c.267-.057.54-.091.809-.135Z" transform="translate(-927.699 -2314.26)" fill="#77e9e2"/>
              <path id="パス_149" data-name="パス 149" d="M966.541,2323.7a.961.961,0,0,1-.595.655.872.872,0,0,1-1.143-.848c-.009-.484,0-.968,0-1.451,0-.8.011-1.605-.005-2.407a3.674,3.674,0,0,0-3.64-3.638c-1.269-.021-2.539-.006-3.809-.005a.889.889,0,0,1-.8-.4.863.863,0,0,1,.425-1.28c.045-.018.089-.038.134-.057h4.356a.834.834,0,0,0,.125.028,5.41,5.41,0,0,1,4.823,4.26c.055.262.088.529.132.792Z" transform="translate(-932.724 -2314.26)" fill="#77e9e2"/>
              <path id="パス_150" data-name="パス 150" d="M966.541,2347.987c-.044.27-.078.543-.135.81a5.4,5.4,0,0,1-4.555,4.209,5.078,5.078,0,0,1-.656.057q-1.955.009-3.91,0a.868.868,0,0,1-.836-1.137.886.886,0,0,1,.891-.6c1.21,0,2.42,0,3.629,0a3.791,3.791,0,0,0,1.783-.4,3.619,3.619,0,0,0,2.006-2.787,4.482,4.482,0,0,0,.041-.69q.006-1.789,0-3.579a.887.887,0,0,1,.4-.8.862.862,0,0,1,1.282.424c.017.045.037.089.056.134Z" transform="translate(-932.724 -2319.283)" fill="#77e9e2"/>
              <path id="パス_152" data-name="パス 152" d="M934.964,2353.041c-.753,0-1.509.043-2.258-.008a5.367,5.367,0,0,1-4.837-4.23,5.874,5.874,0,0,1-.133-1.143c-.016-1.281-.008-2.563-.006-3.844a.874.874,0,0,1,.694-.867.851.851,0,0,1,.958.5,1.173,1.173,0,0,1,.083.448c.007,1.209,0,2.419,0,3.629a3.68,3.68,0,0,0,1.263,2.879,3.426,3.426,0,0,0,2.23.907c1.32.029,2.639.011,3.96.015a.894.894,0,0,1,.9.593.869.869,0,0,1-.81,1.145c-.681.008-1.363,0-2.046,0Z" transform="translate(-927.7 -2319.283)" fill="#77e9e2"/>
              <path id="パス_153" data-name="パス 153" d="M947.179,2346.5a8.643,8.643,0,0,1-6.174-2.26.89.89,0,1,1,1.182-1.326,6.322,6.322,0,0,0,2.695,1.532,6.88,6.88,0,0,0,6.635-1.472.977.977,0,0,1,.928-.295.887.887,0,0,1,.379,1.515,8.352,8.352,0,0,1-3.681,2.033A8.545,8.545,0,0,1,947.179,2346.5Z" transform="translate(-929.967 -2319.233)" fill="#77e9e2"/>
              <path id="パス_154" data-name="パス 154" d="M949.551,2332.7c0,1,0,2,0,3a2.308,2.308,0,0,1-.966,1.993,2.355,2.355,0,0,1-1.348.421,5.159,5.159,0,0,1-.806-.02.874.874,0,0,1-.733-.931.892.892,0,0,1,.859-.821c.2-.005.4,0,.594,0,.443-.008.619-.19.619-.645q0-3.052,0-6.1a.9.9,0,0,1,.426-.822.827.827,0,0,1,.892-.022.866.866,0,0,1,.464.8C949.552,2330.6,949.551,2331.646,949.551,2332.7Z" transform="translate(-930.848 -2316.777)" fill="#77e9e2"/>
              <path id="パス_155" data-name="パス 155" d="M938.868,2330.751c0-.4-.005-.792,0-1.187a.9.9,0,0,1,.667-.909.846.846,0,0,1,1,.684,1.407,1.407,0,0,1,.025.262c0,.764,0,1.528,0,2.291a.962.962,0,0,1-.274.719.761.761,0,0,1-.834.2.789.789,0,0,1-.562-.707c-.031-.449-.007-.9-.007-1.351Z" transform="translate(-929.651 -2316.779)" fill="#77e9e2"/>
              <path id="パス_156" data-name="パス 156" d="M955.765,2330.739c0-.423-.01-.846,0-1.269a.868.868,0,0,1,.654-.814.845.845,0,0,1,1.02.826c.021.841.018,1.682,0,2.522a.84.84,0,1,1-1.679-.028c-.009-.412,0-.824,0-1.237Z" transform="translate(-932.611 -2316.779)" fill="#77e9e2"/>
            </g>
          </g>
        </g>
        <rect id="長方形_292" data-name="長方形 292" width="181" height="40" rx="7" transform="translate(1927 596)" fill="#4f4c4a"/>
        <text id="用戶代號-2" data-name="用戶代號" transform="translate(1933 589)" fill="#fff" font-size="12" font-family="YuGothicUI-Bold, Yu Gothic UI" font-weight="700"><tspan x="0" y="0">用戶代號</tspan></text>
        <text id="登入" transform="translate(2142 621)" fill="#fff" font-size="12" font-family="YuGothicUI-Bold, Yu Gothic UI" font-weight="700"><tspan x="0" y="0">登入</tspan></text>
      </g>
      <g id="グループ_310" data-name="グループ 310" transform="translate(-1205 123)">
        <rect id="長方形_293" data-name="長方形 293" width="375" height="812" rx="16" transform="translate(2332 103)" fill="#393535"/>
        <circle id="楕円形_99" data-name="楕円形 99" cx="31" cy="31" r="31" transform="translate(2452 206)" fill="#4f4c4a"/>
        <g id="グループ_299" data-name="グループ 299" transform="translate(2343 -22.008)">
          <g id="グループ_258" data-name="グループ 258" transform="translate(120.029 238.008)">
            <g id="グループ_141" data-name="グループ 141" transform="translate(5.971)">
              <path id="パス_490" data-name="パス 490" d="M27.336,109.773H22.244a1.389,1.389,0,0,0-1.385,1.385h-.565a7.269,7.269,0,0,0-2.93-2.77.467.467,0,1,0-.426.831,6.316,6.316,0,0,1,2.248,1.95h-.65a.445.445,0,0,0-.437.341l-3.718-.874a1.416,1.416,0,0,0-.842.064l-3.633,1.481a1.62,1.62,0,0,0-.948,1.044l-1.289-.384a6.259,6.259,0,0,1,3.185-3.675.462.462,0,1,0-.4-.831,7.19,7.19,0,0,0-3.665,4.24l-4.911-1.481a1.449,1.449,0,0,0-1.268.213A1.44,1.44,0,0,0,0,112.426v1.033a1.454,1.454,0,0,0,.66,1.161l5.167,3.43a.42.42,0,0,0,.16.064l7.67,1.8a1.614,1.614,0,0,0,.639,0l3.995-.948a.468.468,0,0,0,.234.075h2.4a1.4,1.4,0,0,0,1.3.927h5.092a.455.455,0,0,0,.458-.458v-9.268A.428.428,0,0,0,27.336,109.773Zm-9.268,8.3-3.984.937a.363.363,0,0,1-.213,0L6.285,117.23l-5.114-3.388a.512.512,0,0,1-.245-.384v-1.033a.5.5,0,0,1,.224-.373.506.506,0,0,1,.426-.075L8.949,114.2a1.658,1.658,0,0,0,1.577,1.14h3.452a.458.458,0,0,0,0-.916H10.525a.712.712,0,0,1-.714-.7.7.7,0,0,1,.447-.66l3.622-1.481a.487.487,0,0,1,.277-.021l3.91.916Zm2.78.043h-1.8l.032-6.008V112.1h1.768Zm6.03.927H22.244a.455.455,0,0,1-.458-.458v-7.4a.455.455,0,0,1,.458-.458h4.634Z" transform="translate(0 -96.904)" fill="#fff"/>
              <path id="パス_491" data-name="パス 491" d="M218.755,192.816h1.385a.458.458,0,1,0,0-.916h-1.385a.455.455,0,0,0-.458.458A.448.448,0,0,0,218.755,192.816Z" transform="translate(-195.041 -171.606)" fill="#fff"/>
              <path id="パス_492" data-name="パス 492" d="M141.056,90.511a1.444,1.444,0,0,0-.767.415c-.469.469-.533,1.044-.3,1.278a.6.6,0,0,0,.511.117,1.444,1.444,0,0,0,.767-.415c.469-.469.533-1.044.3-1.278a.515.515,0,0,0-.373-.128A.563.563,0,0,0,141.056,90.511Z" transform="translate(-124.959 -81.008)" fill="#fff"/>
              <path id="パス_493" data-name="パス 493" d="M104.891,91.217c-.234.234-.17.82.3,1.278s1.044.533,1.278.3.17-.82-.3-1.278a1.334,1.334,0,0,0-.906-.426A.47.47,0,0,0,104.891,91.217Z" transform="translate(-93.598 -81.533)" fill="#fff"/>
              <path id="パス_494" data-name="パス 494" d="M93.821,10.242A4.421,4.421,0,1,0,89.4,5.821,4.424,4.424,0,0,0,93.821,10.242Zm0-7.937a3.516,3.516,0,1,1-3.516,3.516A3.519,3.519,0,0,1,93.821,2.306Z" transform="translate(-79.876 -1.4)" fill="#fff"/>
              <path id="パス_495" data-name="パス 495" d="M115.442,16.99h.895a.447.447,0,1,1,0,.895h-1.342a.447.447,0,1,0,0,.895h.447v.437a.447.447,0,0,0,.895,0v-.447a1.342,1.342,0,0,0,0-2.685h-.895a.447.447,0,0,1,0-.895h1.342a.447.447,0,0,0,0-.895h-.447v-.447a.447.447,0,0,0-.895,0v.447a1.343,1.343,0,0,0-1.342,1.342A1.36,1.36,0,0,0,115.442,16.99Z" transform="translate(-101.945 -12.122)" fill="#fff"/>
              <path id="パス_496" data-name="パス 496" d="M126.5,90.958v2.834a.458.458,0,1,0,.916,0V90.958a.458.458,0,1,0-.916,0Z" transform="translate(-113.024 -81.008)" fill="#fff"/>
            </g>
          </g>
          <text id="投資" transform="translate(130 277.366)" fill="#fff" font-size="9" font-family="YuGothicUI-Regular, Yu Gothic UI" letter-spacing="0.063em"><tspan x="0" y="0">投資</tspan></text>
        </g>
        <circle id="楕円形_100" data-name="楕円形 100" cx="31" cy="31" r="31" transform="translate(2599 207)" fill="#4f4c4a"/>
        <g id="グループ_300" data-name="グループ 300" transform="translate(2337 -21.008)">
          <g id="グループ_138" data-name="グループ 138" transform="translate(281 238.008)">
            <path id="パス_473" data-name="パス 473" d="M722.084,209.2h-1.123a.561.561,0,0,0,0,1.123h1.123a.566.566,0,0,0,.561-.561A.558.558,0,0,0,722.084,209.2Z" transform="translate(-708.087 -184.166)" fill="#fff"/>
            <path id="パス_474" data-name="パス 474" d="M649.808,89.895h-5.6a.566.566,0,0,0-.561.561v9.518h-1.123V84.561a.561.561,0,1,0-1.123,0v15.962a.566.566,0,0,0,.561.561H649.8a.566.566,0,0,0,.561-.561V90.443A.537.537,0,0,0,649.808,89.895Zm-.561,10.08h-4.479V91.018h4.479Z" transform="translate(-639.167 -74.941)" fill="#fff"/>
            <ellipse id="楕円形_15" data-name="楕円形 15" cx="0.561" cy="0.561" rx="0.561" ry="0.561" transform="translate(8.396 19.994)" fill="#fff"/>
            <path id="パス_475" data-name="パス 475" d="M704.189,55.294a2.794,2.794,0,1,0-2.794,2.794A2.794,2.794,0,0,0,704.189,55.294Zm-2.807-1.684a1.7,1.7,0,0,1,1.582,1.123h-3.151A1.67,1.67,0,0,1,701.382,53.61Zm-1.569,2.246h3.151a1.667,1.667,0,0,1-3.151,0Z" transform="translate(-689.069 -47.46)" fill="#fff"/>
            <path id="パス_476" data-name="パス 476" d="M647.262,19.711,645.718,18.7a.3.3,0,0,0,.026-.1V14.123a.561.561,0,0,0,0-1.123h-3.368a.561.561,0,0,0,0,1.123v1.684a.561.561,0,1,0,1.123,0V14.123h1.123v3.866L637.552,13.4a2.462,2.462,0,0,0-2.667,0l-9.71,6.316a2.807,2.807,0,0,0-1.276,2.348v.459a.561.561,0,1,0,1.123,0v-.459a1.642,1.642,0,0,1,.766-1.4l9.71-6.316a1.361,1.361,0,0,1,1.455,0l9.7,6.316a1.713,1.713,0,0,1,.766,1.314h-1.684a.566.566,0,0,0-.561.561V25.81a.561.561,0,1,0,1.123,0V23.08h1.684a.566.566,0,0,0,.561-.561v-.459A2.824,2.824,0,0,0,647.262,19.711Z" transform="translate(-623.9 -13)" fill="#fff"/>
            <path id="パス_477" data-name="パス 477" d="M726.563,121.4a6.163,6.163,0,1,0,6.163,6.163A6.175,6.175,0,0,0,726.563,121.4Zm0,11.2a5.04,5.04,0,1,1,5.04-5.04A5.042,5.042,0,0,1,726.563,132.6Z" transform="translate(-708.087 -107.569)" fill="#fff"/>
            <path id="パス_478" data-name="パス 478" d="M753.907,142.268h-1.123a.561.561,0,0,1,0-1.123h1.684a.561.561,0,1,0,0-1.123h-.561v-.561a.561.561,0,1,0-1.123,0v.561a1.684,1.684,0,0,0,0,3.368h1.123a.561.561,0,0,1,0,1.123h-1.684a.561.561,0,1,0,0,1.123h.561v.561a.561.561,0,0,0,1.123,0v-.561a1.684,1.684,0,0,0,0-3.368Z" transform="translate(-734.87 -122.836)" fill="#fff"/>
          </g>
          <text id="存款" transform="translate(284 277.366)" fill="#fff" font-size="9" font-family="YuGothicUI-Regular, Yu Gothic UI" letter-spacing="0.063em"><tspan x="0" y="0">存款</tspan></text>
        </g>
        <circle id="楕円形_101" data-name="楕円形 101" cx="31" cy="31" r="31" transform="translate(2378 206)" fill="#4f4c4a"/>
        <g id="グループ_301" data-name="グループ 301" transform="translate(2339 -22.008)">
          <g id="コンポーネント_14_1" data-name="コンポーネント 14 – 1" transform="translate(58 238.008)" clip-path="url(#clip-path-3)">
            <g id="グループ_118" data-name="グループ 118">
              <path id="パス_411" data-name="パス 411" d="M1380.25,27.2h-13.394a2.427,2.427,0,0,0-2.426,2.426V40.71l-1.536-1.537a.581.581,0,0,0-.821.821l2.532,2.532a.583.583,0,0,0,.831,0l2.532-2.532a.581.581,0,1,0-.821-.821l-1.537,1.537V29.626a1.27,1.27,0,0,1,1.266-1.266h13.384a1.27,1.27,0,0,1,1.266,1.266V31.24a.589.589,0,1,0,1.179,0V29.626a2.471,2.471,0,0,0-2.455-2.426Zm0,0" transform="translate(-1361.9 -27.2)" fill="#fff"/>
              <path id="パス_412" data-name="パス 412" d="M1405.17,94.209l-2.532,2.532a.572.572,0,0,0,0,.821.583.583,0,0,0,.831,0l1.536-1.537V107.11a1.27,1.27,0,0,1-1.266,1.266h-13.394a1.27,1.27,0,0,1-1.266-1.266V105.5a.589.589,0,1,0-1.179,0v1.614a2.427,2.427,0,0,0,2.426,2.426h13.384a2.427,2.427,0,0,0,2.426-2.426V96.026l1.536,1.537a.581.581,0,1,0,.822-.821l-2.532-2.532a.571.571,0,0,0-.792,0Zm0,0" transform="translate(-1385.388 -87.59)" fill="#fff"/>
            </g>
            <path id="パス_413" data-name="パス 413" d="M1457.39,87.5a.592.592,0,0,0-.589.589v.9h-.077a2.129,2.129,0,0,0,0,4.252h1.314a.962.962,0,0,1,0,1.913h-2.358a.59.59,0,0,0,0,1.179h1.121v.908a.589.589,0,0,0,1.179,0v-.908h.1a2.13,2.13,0,0,0-.029-4.252h-1.314a.962.962,0,0,1,0-1.913h2.319a.59.59,0,1,0,0-1.179h-1.073v-.9a.592.592,0,0,0-.589-.589Zm0,0" transform="translate(-1445.732 -81.673)" fill="#fff"/>
          </g>
          <text id="轉帳" transform="translate(60 277.366)" fill="#fff" font-size="9" font-family="YuGothicUI-Regular, Yu Gothic UI" letter-spacing="0.063em"><tspan x="0" y="0">轉帳</tspan></text>
        </g>
        <circle id="楕円形_102" data-name="楕円形 102" cx="31" cy="31" r="31" transform="translate(2525 207)" fill="#4f4c4a"/>
        <text id="繳費" transform="translate(2547 255.737)" fill="#fff" font-size="9" font-family="YuGothicUI-Regular, Yu Gothic UI" letter-spacing="0.063em"><tspan x="0" y="0">繳費</tspan></text>
        <g id="コンポーネント_15_1" data-name="コンポーネント 15 – 1" transform="translate(2545 216)" clip-path="url(#clip-path-4)">
          <path id="パス_407" data-name="パス 407" d="M1082.11,27.1h-21.25a.561.561,0,1,0,0,1.121h1.759V50.409a.565.565,0,0,0,.879.464l2.445-1.623,2.455,1.633a.571.571,0,0,0,.628,0l2.445-1.624,2.455,1.633a.57.57,0,0,0,.628,0L1077,49.269l2.455,1.633a.612.612,0,0,0,.309.1.569.569,0,0,0,.57-.56l-.01-22.188h1.826a.561.561,0,0,0,.561-.56.643.643,0,0,0-.6-.589Zm-2.938,22.265-1.894-1.256a.555.555,0,0,0-.619,0l-2.445,1.633-2.455-1.633a.555.555,0,0,0-.619,0l-2.445,1.623-2.455-1.624a.554.554,0,0,0-.618,0l-1.884,1.256V28.221h15.423Zm0,0" transform="translate(-1060.3 -27.1)" fill="#fff"/>
          <path id="パス_408" data-name="パス 408" d="M1117.46,95.063h10.533a.532.532,0,1,0,0-1.063H1117.46a.532.532,0,1,0,0,1.063Zm0,0" transform="translate(-1111.43 -87.535)" fill="#fff"/>
          <path id="パス_409" data-name="パス 409" d="M1117.46,62.763h10.533a.532.532,0,1,0,0-1.063H1117.46a.532.532,0,1,0,0,1.063Zm0,0" transform="translate(-1111.43 -58.356)" fill="#fff"/>
          <path id="パス_410" data-name="パス 410" d="M1117.46,127.763h5.982a.532.532,0,1,0,0-1.063h-5.982a.532.532,0,1,0,0,1.063Zm0,0" transform="translate(-1111.43 -117.075)" fill="#fff"/>
        </g>
        <text id="信用卡" transform="translate(2356 319)" fill="#fff" font-size="16" font-family="YuGothicUI-Bold, Yu Gothic UI" font-weight="700"><tspan x="0" y="0">信用卡</tspan></text>
        <rect id="長方形_295" data-name="長方形 295" width="327" height="62" rx="15" transform="translate(2356 617.569)" fill="rgba(255,255,255,0.12)"/>
        <circle id="楕円形_103" data-name="楕円形 103" cx="18.303" cy="18.303" r="18.303" transform="translate(2390.812 630.211)" opacity="0.495" fill="url(#linear-gradient)"/>
        <circle id="楕円形_104" data-name="楕円形 104" cx="18.303" cy="18.303" r="18.303" transform="translate(2390.812 630.211)" fill="#77e9e2"/>
        <text id="Taxi" transform="translate(2438 645.569)" fill="#fff" font-size="10" font-family="SegoeUI-Bold, Segoe UI" font-weight="700"><tspan x="0" y="0">Taxi</tspan></text>
        <path id="合体_4" data-name="合体 4" d="M6.387,16.516c0-.012,0-.024,0-.035H6.352V2.873H1.533c-.031,0-.064,0-.1,0s-.064,0-.095,0H1.307v0a1.438,1.438,0,0,1,0-2.864V0H14.842V.009a1.438,1.438,0,0,1,0,2.859v.005h-.062c-.031,0-.064,0-.095,0s-.064,0-.1,0H9.8V16.481h-.01c0,.012,0,.023,0,.035a1.7,1.7,0,0,1-3.4,0Z" transform="translate(2401.097 640.748)" fill="#fff" stroke="rgba(0,0,0,0)" stroke-miterlimit="10" stroke-width="1"/>
        <text id="April_31_2020_Sunday." data-name="April 31, 2020, Sunday." transform="translate(2438 659.569)" fill="#fff" font-size="9" font-family="SegoeUI, Segoe UI"><tspan x="0" y="0">April 31, 2020, Sunday.</tspan></text>
        <text id="_-_1_450" data-name="- $ 1,450" transform="translate(2599 653.569)" fill="#77e9e2" font-size="12" font-family="SegoeUI-Bold, Segoe UI" font-weight="700"><tspan x="0" y="0">- $ 1,450</tspan></text>
        <path id="パス_653" data-name="パス 653" d="M15,0H312c8.284,0,15,5.853,15,13.073V49.679c0,7.22-6.716,13.073-15,13.073H15c-8.284,0-15-5.853-15-13.073V13.073C0,5.853,6.716,0,15,0Z" transform="translate(2356 779.248)" fill="#4f4c4a"/>
        <ellipse id="楕円形_108" data-name="楕円形 108" cx="18.5" cy="18" rx="18.5" ry="18" transform="translate(2390 792.569)" fill="#fbef91"/>
        <text id="Spotify" transform="translate(2438 807.569)" fill="#fff" font-size="10" font-family="SegoeUI-Bold, Segoe UI" font-weight="700"><tspan x="0" y="0">Spotify</tspan></text>
        <text id="April_31_2020_Sunday.-2" data-name="April 31, 2020, Sunday." transform="translate(2438 821.569)" fill="#fff" font-size="9" font-family="SegoeUI, Segoe UI"><tspan x="0" y="0">April 31, 2020, Sunday.</tspan></text>
        <text id="_-_990" data-name="- $ 990" transform="translate(2609 815.569)" fill="#77e9e2" font-size="12" font-family="SegoeUI-Bold, Segoe UI" font-weight="700"><tspan x="0" y="0">- $ 990</tspan></text>
        <g id="グループ_303" data-name="グループ 303" transform="translate(2396.644 801.265)">
          <path id="パス_9" data-name="パス 9" d="M20.819,7.189A24.054,24.054,0,0,0,8.6,4.03a23.78,23.78,0,0,0-6.741.932A1.384,1.384,0,0,0,.8,6.4,1.336,1.336,0,0,0,2.139,7.743a3.078,3.078,0,0,0,.83-.189A21.829,21.829,0,0,1,8.546,6.84,21.6,21.6,0,0,1,19.407,9.592a1.552,1.552,0,0,0,.859.291,1.336,1.336,0,0,0,1.339-1.339A1.439,1.439,0,0,0,20.819,7.189Z" transform="translate(0.365 1.837)" fill="#fff"/>
          <path id="パス_10" data-name="パス 10" d="M23.485,3.305C19.626,1.034,14.341,0,9.318,0A29.048,29.048,0,0,0,1.194,1.048,1.645,1.645,0,0,0,0,2.694,1.6,1.6,0,0,0,1.616,4.324a3.687,3.687,0,0,0,.874-.189A26.5,26.5,0,0,1,9.318,3.32c4.644,0,9.449,1.019,12.55,2.883a1.647,1.647,0,0,0,.874.262,1.6,1.6,0,0,0,1.616-1.6A1.6,1.6,0,0,0,23.485,3.305Z" fill="#fff"/>
          <path id="パス_11" data-name="パス 11" d="M18.562,10.447A19.025,19.025,0,0,0,8.618,7.87a28.65,28.65,0,0,0-6.406.757A1.1,1.1,0,0,0,1.28,9.806a1.074,1.074,0,0,0,1.077,1.077,4.162,4.162,0,0,0,.844-.175,26.349,26.349,0,0,1,5.4-.6A17.156,17.156,0,0,1,17.456,12.4a1.288,1.288,0,0,0,.728.248,1.059,1.059,0,0,0,1.063-1.063A1.133,1.133,0,0,0,18.562,10.447Z" transform="translate(0.584 3.588)" fill="#fff"/>
        </g>
        <rect id="長方形_296" data-name="長方形 296" width="327" height="62" rx="15" transform="translate(2356 698.569)" fill="#4f4c4a"/>
        <ellipse id="楕円形_109" data-name="楕円形 109" cx="18.5" cy="18" rx="18.5" ry="18" transform="translate(2390 711.569)" fill="#bda3fe" opacity="0.458"/>
        <ellipse id="楕円形_110" data-name="楕円形 110" cx="18.5" cy="18" rx="18.5" ry="18" transform="translate(2390 711.569)" fill="#bea5fe"/>
        <text id="App_Store" data-name="App Store" transform="translate(2438 726.569)" fill="#fff" font-size="10" font-family="SegoeUI-Bold, Segoe UI" font-weight="700"><tspan x="0" y="0">App Store</tspan></text>
        <text id="April_31_2020_Sunday.-3" data-name="April 31, 2020, Sunday." transform="translate(2438 740.569)" fill="#fff" font-size="9" font-family="SegoeUI, Segoe UI"><tspan x="0" y="0">April 31, 2020, Sunday.</tspan></text>
        <text id="_-_2_750" data-name="- $ 2,750" transform="translate(2599 734.569)" fill="#77e9e2" font-size="12" font-family="SegoeUI-Bold, Segoe UI" font-weight="700"><tspan x="0" y="0">- $ 2,750</tspan></text>
        <g id="グループ_304" data-name="グループ 304" transform="translate(2397.617 719.559)">
          <path id="パス_6" data-name="パス 6" d="M24.717,13.8H21.226L17.168,6.93a2.263,2.263,0,0,0-.632.8,2.968,2.968,0,0,0,.05,2.952L18.41,13.8l1.415,2.406L22.1,20.082a1.223,1.223,0,0,0,1.049.6,1.205,1.205,0,0,0,.625-.172,1.236,1.236,0,0,0,.4-1.674l-1.537-2.615v-.007h2.1a1.217,1.217,0,0,0,1.221-1.264A1.243,1.243,0,0,0,24.717,13.8Z" transform="translate(-4.56 -1.953)" fill="#fff"/>
          <path id="パス_7" data-name="パス 7" d="M4.682,20.32H4.5a.675.675,0,0,0-.589.338L2.735,22.626a1.209,1.209,0,0,0,1.049,1.81,1.21,1.21,0,0,0,1.049-.6l1.494-2.507A1.721,1.721,0,0,0,4.682,20.32Z" transform="translate(-0.729 -5.725)" fill="#fff"/>
          <path id="パス_8" data-name="パス 8" d="M13.83,12.65a1.892,1.892,0,0,0-1.544-.783H7.81v-.014l3.038-5.179,1.394-2.385,1.437-2.449A1.22,1.22,0,0,0,13.313.194a1.207,1.207,0,0,0-1.7.4l-.769,1.315h-.007L10.073.6A1.2,1.2,0,1,0,8.011,1.839L9.448,4.289,4.994,11.853H1.252A1.221,1.221,0,0,0,.009,13a1.2,1.2,0,0,0,1.207,1.257H6.388l7.779-.007a1.015,1.015,0,0,0,.093-.4,2.129,2.129,0,0,0-.4-1.149Z" transform="translate(-0.008 -0.001)" fill="#fff"/>
        </g>
        <text id="消費紀錄" transform="translate(2356 586.569)" fill="#fff" font-size="16" font-family="YuGothicUI-Bold, Yu Gothic UI" font-weight="700"><tspan x="0" y="0">消費紀錄</tspan></text>
        <g id="グループ_305" data-name="グループ 305" transform="translate(2339 90)">
          <g id="長方形_6" data-name="長方形 6" transform="translate(335 50)" fill="none" stroke="#fff" stroke-width="2">
            <rect width="10" height="10" rx="5" stroke="none"/>
            <rect x="1" y="1" width="8" height="8" rx="4" fill="none"/>
          </g>
          <g id="長方形_9" data-name="長方形 9" transform="translate(335 63)" fill="none" stroke="#fff" stroke-width="2">
            <rect width="10" height="10" rx="5" stroke="none"/>
            <rect x="1" y="1" width="8" height="8" rx="4" fill="none"/>
          </g>
          <g id="長方形_7" data-name="長方形 7" transform="translate(322 50)" fill="none" stroke="#fff" stroke-width="2">
            <rect width="10" height="10" rx="5" stroke="none"/>
            <rect x="1" y="1" width="8" height="8" rx="4" fill="none"/>
          </g>
          <g id="長方形_8" data-name="長方形 8" transform="translate(322 63)" fill="none" stroke="#fff" stroke-width="2">
            <rect width="10" height="10" rx="5" stroke="none"/>
            <rect x="1" y="1" width="8" height="8" rx="4" fill="none"/>
          </g>
        </g>
        <text id="_Bank-3" data-name=" Bank" transform="translate(2379.845 158)" fill="#c0aafe" font-size="18" font-family="Poppins-Bold, Poppins" font-weight="700"><tspan x="0" y="0" xml:space="preserve"> B</tspan><tspan y="0" fill="#c2acfe">a</tspan><tspan y="0" fill="#77e9e2">nk</tspan></text>
        <path id="ic_wb_cloudy_24px-3" data-name="ic_wb_cloudy_24px" d="M17.39,9.425a6.736,6.736,0,0,0-12.585-1.8A5.387,5.387,0,0,0,5.39,18.372H17.067a4.479,4.479,0,0,0,.323-8.947Z" transform="translate(2356 141.279)" fill="#c1adfe"/>
        <g id="マスクグループ_5" data-name="マスクグループ 5" clip-path="url(#clip-path-5)">
          <g id="グループ_264" data-name="グループ 264" transform="translate(2333 262)">
            <rect id="長方形_4" data-name="長方形 4" width="279" height="153" rx="22" transform="translate(302 241) rotate(180)" fill="url(#linear-gradient-2)"/>
            <rect id="長方形_185" data-name="長方形 185" width="278" height="153" rx="22" transform="translate(16 96)" fill="#bea6fe" opacity="0.454"/>
            <g id="グループ_9" data-name="グループ 9" transform="translate(49 -253)">
              <rect id="長方形_15" data-name="長方形 15" width="18" height="6" rx="3" transform="translate(119 523)" fill="#fbef91"/>
              <rect id="長方形_16" data-name="長方形 16" width="6" height="6" rx="3" transform="translate(142 523)" fill="#e5e5e5"/>
              <rect id="長方形_17-2" data-name="長方形 17" width="6" height="6" rx="3" transform="translate(152 523)" fill="#e5e5e5"/>
            </g>
            <path id="visa-logo-path" d="M0,4.1,1.564,0,2.47,4.1Z" transform="translate(73.676 109.703)" fill="#c2aefe" opacity="0.999"/>
            <text id="_4908-2" data-name="4908" transform="translate(249 214)" fill="#fff" font-size="12" font-family="Rubik-Regular, Rubik"><tspan x="0" y="0">4908</tspan></text>
            <text id="_01_12" data-name="01/12" transform="translate(249 115)" fill="#fff" font-size="11" font-family="Rubik-Regular, Rubik"><tspan x="0" y="0">01/12</tspan></text>
            <text id="Credit_Card" data-name="Credit Card" transform="translate(45 213)" fill="#fff" font-size="8" font-family="SegoeUI, Segoe UI"><tspan x="0" y="0">Credit Card</tspan></text>
            <circle id="楕円形_7-3" data-name="楕円形 7" cx="1.5" cy="1.5" r="1.5" transform="translate(227 209)" fill="#fff"/>
            <ellipse id="楕円形_10-2" data-name="楕円形 10" cx="2" cy="1.5" rx="2" ry="1.5" transform="translate(234 209)" fill="#fff"/>
            <ellipse id="楕円形_8-3" data-name="楕円形 8" cx="2" cy="1.5" rx="2" ry="1.5" transform="translate(219 209)" fill="#fff"/>
            <circle id="楕円形_9-3" data-name="楕円形 9" cx="1.5" cy="1.5" r="1.5" transform="translate(212 209)" fill="#fff"/>
            <rect id="長方形_17-3" data-name="長方形 17" width="73" height="5" rx="2.5" transform="translate(153 127)" fill="#fff" opacity="0.296"/>
            <rect id="長方形_18-2" data-name="長方形 18" width="43" height="5" rx="2.5" transform="translate(153 137)" fill="#fff" opacity="0.296"/>
            <rect id="長方形_19-2" data-name="長方形 19" width="72" height="5" rx="2.5" transform="translate(153 147)" fill="#fff" opacity="0.296"/>
            <rect id="長方形_20-2" data-name="長方形 20" width="72" height="5" rx="2.5" transform="translate(153 157)" fill="#fff" opacity="0.296"/>
            <rect id="長方形_21" data-name="長方形 21" width="43" height="4" rx="2" transform="translate(153 168)" fill="#fff" opacity="0.296"/>
            <rect id="長方形_22" data-name="長方形 22" width="61" height="4" rx="2" transform="translate(164 178)" fill="#fff" opacity="0.296"/>
            <rect id="長方形_23" data-name="長方形 23" width="101" height="5" rx="2.5" transform="translate(153 188)" fill="#fff" opacity="0.296"/>
            <rect id="長方形_185-2" data-name="長方形 185" width="278" height="153" rx="22" transform="translate(306 96)" opacity="0.454" fill="url(#linear-gradient-3)"/>
            <rect id="長方形_4-2" data-name="長方形 4" width="279" height="153" rx="22" transform="translate(313 88)" fill="#77e9e2"/>
            <text id="Credit_Card-2" data-name="Credit Card" transform="translate(335 213)" fill="#fff" font-size="8" font-family="SegoeUI, Segoe UI"><tspan x="0" y="0">Credit Card</tspan></text>
            <g id="グループ_1-3" data-name="グループ 1" transform="translate(338.73 105.354)">
              <rect id="Rectangle-2" data-name="Rectangle" width="6.527" height="10.061" transform="translate(7.715 1.369)" fill="#f26122"/>
              <path id="Path-3" data-name="Path" d="M8.419,6.4a6.253,6.253,0,0,1,2.557-5.03A7.078,7.078,0,0,0,1.8,2.058a6.137,6.137,0,0,0,0,8.685,7.078,7.078,0,0,0,9.176.688A6.253,6.253,0,0,1,8.419,6.4Z" transform="translate(0 0)" fill="#ea1d25"/>
              <path id="Path-4" data-name="Path" d="M10.97,6.4a6.378,6.378,0,0,1-3.818,5.752A7.117,7.117,0,0,1,0,11.426,6.16,6.16,0,0,0,1.138,2.445,6.471,6.471,0,0,0,0,1.365,7.117,7.117,0,0,1,7.152.644,6.378,6.378,0,0,1,10.97,6.4Z" transform="translate(10.976 0.004)" fill="#f69e1e"/>
            </g>
            <path id="Icon_awesome-cc-visa" data-name="Icon awesome-cc-visa" d="M21.834,11.507s.353,1.728.432,2.09H20.715c.153-.413.743-2.02.743-2.02s.153-.423.246-.692l.13.622Zm4.919-7.027V20.828a2.23,2.23,0,0,1-2.229,2.229H2.229A2.23,2.23,0,0,1,0,20.828V4.479A2.23,2.23,0,0,1,2.229,2.25H24.523A2.23,2.23,0,0,1,26.753,4.479ZM7.083,16.146l2.935-7.208H8.044L6.219,13.861l-.2-1-.65-3.316a.777.777,0,0,0-.845-.608H1.519l-.033.144a7.37,7.37,0,0,1,1.96.794l1.663,6.27Zm4.384.009,1.17-7.218H10.771L9.6,16.156h1.862Zm6.5-2.359c.009-.822-.492-1.449-1.565-1.965-.655-.33-1.054-.553-1.054-.892.009-.307.339-.622,1.073-.622a3.2,3.2,0,0,1,1.389.274l.167.079L18.23,9.11A4.638,4.638,0,0,0,16.558,8.8c-1.844,0-3.14.985-3.149,2.387-.014,1.036.929,1.612,1.635,1.96s.966.585.966.9c-.009.483-.585.706-1.119.706a3.72,3.72,0,0,1-1.751-.385l-.246-.116-.26,1.621a5.7,5.7,0,0,0,2.081.385C16.674,16.263,17.951,15.292,17.965,13.8Zm6.558,2.359-1.5-7.218H21.574a.919.919,0,0,0-.975.6l-2.773,6.618h1.96s.32-.892.39-1.082h2.4c.056.255.223,1.082.223,1.082Z" transform="translate(42.125 103.942)" fill="#fff"/>
          </g>
        </g>
      </g>
      <g id="グループ_311" data-name="グループ 311" transform="translate(-1364 -539)">
        <rect id="長方形_297" data-name="長方形 297" width="375" height="812" rx="16" transform="translate(2965 594)" fill="#393535"/>
        <rect id="長方形_298" data-name="長方形 298" width="36" height="37" rx="18" transform="translate(2989 1283)" fill="#fbef91" opacity="0.438"/>
        <rect id="長方形_299" data-name="長方形 299" width="36" height="37" rx="18" transform="translate(2989 1283)" fill="#fbef91" opacity="0.981"/>
        <path id="パス_654" data-name="パス 654" d="M25.938,0H301.062C315.387,0,327,9.46,327,21.13V158.87c0,11.67-11.613,21.13-25.938,21.13H25.938C11.613,180,0,170.54,0,158.87V21.13C0,9.46,11.613,0,25.938,0Z" transform="translate(2989 719)" fill="#4f4c4a"/>
        <g id="グループ_306" data-name="グループ 306" transform="translate(2965 556)">
          <g id="グループ_236" data-name="グループ 236" transform="translate(7 -37)">
            <text id="台幣總額" transform="translate(149 320)" fill="#fff" font-size="16" font-family="YuGothicUI-Bold, Yu Gothic UI" font-weight="700"><tspan x="0" y="0">台幣總額</tspan></text>
          </g>
          <g id="グループ_266" data-name="グループ 266" transform="translate(19 -38)">
            <text id="_34_543" data-name="$ 34,543" transform="translate(123 357)" fill="#77e9e2" font-size="23" font-family="SegoeUI-Bold, Segoe UI" font-weight="700"><tspan x="0" y="0">$ 34,543</tspan></text>
          </g>
        </g>
        <g id="グループ_307" data-name="グループ 307" transform="translate(2971 493)">
          <text id="Weekly" transform="translate(101 457.5)" fill="#fff" font-size="12" font-family="SegoeUI, Segoe UI"><tspan x="-18.984" y="0">Weekly</tspan></text>
          <text id="Monthly" transform="translate(185 457.5)" fill="#77e9e2" font-size="12" font-family="SegoeUI, Segoe UI"><tspan x="-22.084" y="0">Monthly</tspan></text>
          <text id="Yearly" transform="translate(266 457.5)" fill="#fff" font-size="12" font-family="SegoeUI, Segoe UI"><tspan x="-15.422" y="0">Yearly</tspan></text>
          <line id="線_2" data-name="線 2" y2="20" transform="translate(139.5 443)" fill="none" stroke="#a5a5a5" stroke-width="1"/>
          <line id="線_3" data-name="線 3" y2="20" transform="translate(230.5 443)" fill="none" stroke="#a5a5a5" stroke-width="1"/>
        </g>
        <path id="パス_656" data-name="パス 656" d="M914,590.142s31.612-35.8,86.1-35.8,69.419,55.479,141.525,39.835,67.755-96.749,147.88-82.294" transform="translate(2050.49 465.127)" fill="none" stroke="#fbef91" stroke-width="4"/>
        <text id="Feb" transform="translate(3002 1105)" fill="#fff" font-size="12" font-family="SegoeUI, Segoe UI"><tspan x="-9.595" y="0">Feb</tspan></text>
        <text id="Mar" transform="translate(3052 1105)" fill="#fff" font-size="12" font-family="SegoeUI, Segoe UI"><tspan x="-10.526" y="0">Mar</tspan></text>
        <text id="Apr" transform="translate(3102 1105)" fill="#fff" font-size="12" font-family="SegoeUI, Segoe UI"><tspan x="-9.483" y="0">Apr</tspan></text>
        <text id="May" transform="translate(3154 1105)" fill="#3cd4cd" font-size="12" font-family="SegoeUI, Segoe UI"><tspan x="-11.344" y="0">May</tspan></text>
        <text id="Jun" transform="translate(3205 1105)" fill="#fff" font-size="12" font-family="SegoeUI, Segoe UI"><tspan x="-8.933" y="0">Jun</tspan></text>
        <text id="_3_322" data-name="$3,322" transform="translate(3153 1035)" fill="#fff" font-size="12" font-family="SegoeUI, Segoe UI"><tspan x="-17.473" y="0">$3,322</tspan></text>
        <text id="Jul" transform="translate(3252 1105)" fill="#fff" font-size="12" font-family="SegoeUI, Segoe UI"><tspan x="-6.99" y="0">Jul</tspan></text>
        <text id="Aug" transform="translate(3301 1105)" fill="#fff" font-size="12" font-family="SegoeUI, Segoe UI"><tspan x="-10.799" y="0">Aug</tspan></text>
        <circle id="楕円形_111" data-name="楕円形 111" cx="7" cy="7" r="7" transform="translate(3145 1054)" fill="#fbef91"/>
        <text id="交易明細" transform="translate(2988 1184)" fill="#fff" font-size="16" font-family="YuGothicUI-Semibold, Yu Gothic UI" font-weight="600"><tspan x="0" y="0">交易明細</tspan></text>
        <text id="See_all" data-name="See all" transform="translate(3245 1184)" fill="#fff" font-size="12" font-family="SegoeUI, Segoe UI"><tspan x="0" y="0">See all</tspan></text>
        <g id="Icon_feather-arrow-right" data-name="Icon feather-arrow-right" transform="translate(3297.038 1166.5)">
          <path id="パス_4" data-name="パス 4" d="M7.5,18H17.962" transform="translate(0 -5.269)" fill="none" stroke="#fbef91" stroke-linecap="round" stroke-linejoin="round" stroke-width="2"/>
          <path id="パス_5" data-name="パス 5" d="M18,7.5l5.231,5.231L18,17.962" transform="translate(-5.269)" fill="none" stroke="#fbef91" stroke-linecap="round" stroke-linejoin="round" stroke-width="2"/>
        </g>
        <text id="_-_628" data-name="- $628" transform="translate(3244 1219)" fill="#19e8e3" font-size="14" font-family="SegoeUI-Bold, Segoe UI" font-weight="700"><tspan x="30.267" y="15">- $628</tspan></text>
        <text id="Sophia_Miller_Recived" data-name="Sophia Miller
Recived" transform="translate(3057 1231)" fill="#fff" font-size="12" font-family="SegoeUI-Bold, Segoe UI" font-weight="700"><tspan x="0" y="0">Sophia Miller</tspan><tspan font-family="SegoeUI, Segoe UI" font-weight="400"><tspan x="0" y="18">Recived</tspan></tspan></text>
        <g id="グループ_308" data-name="グループ 308" transform="translate(2961 594)">
          <circle id="楕円形_90" data-name="楕円形 90" cx="18" cy="18" r="18" transform="translate(28 626)" opacity="0.495" fill="url(#linear-gradient)"/>
          <rect id="長方形_2" data-name="長方形 2" width="36" height="37" rx="18" transform="translate(28 625)" opacity="0.981" fill="url(#linear-gradient-5)"/>
          <text id="S_M" data-name="S M" transform="translate(37 647)" fill="#fff" font-size="10" font-family="SegoeUI-Bold, Segoe UI" font-weight="700"><tspan x="0" y="0">S M</tspan></text>
        </g>
        <text id="_-_100_00" data-name="- $100,00" transform="translate(3244 1283)" fill="#19e8e3" font-size="14" font-family="SegoeUI-Bold, Segoe UI" font-weight="700"><tspan x="10.367" y="15">- $100,00</tspan></text>
        <text id="Bob_brown_Sent" data-name="Bob brown
Sent" transform="translate(3057 1295)" fill="#fff" font-size="12" font-family="SegoeUI-Bold, Segoe UI" font-weight="700"><tspan x="0" y="0">Bob brown</tspan><tspan font-family="SegoeUI, Segoe UI" font-weight="400"><tspan x="0" y="18">Sent</tspan></tspan></text>
        <text id="B_B" data-name="B B" transform="translate(2999 1305)" fill="#fff" font-size="10" font-family="SegoeUI-Bold, Segoe UI" font-weight="700"><tspan x="0" y="0">B B</tspan></text>
        <g id="グループ_309" data-name="グループ 309" transform="translate(1274 701)">
          <rect id="長方形_4-3" data-name="長方形 4" width="279" height="153" rx="22" transform="translate(2018 100) rotate(180)" fill="url(#linear-gradient-2)"/>
          <rect id="長方形_185-3" data-name="長方形 185" width="278" height="153" rx="22" transform="translate(1732 -45)" fill="#bea6fe" opacity="0.454"/>
          <path id="visa-logo-path-2" data-name="visa-logo-path" d="M0,4.1,1.564,0,2.47,4.1Z" transform="translate(1789.676 -31.297)" fill="#c2aefe" opacity="0.999"/>
          <text id="_4908-3" data-name="4908" transform="translate(1965 73)" fill="#fff" font-size="12" font-family="Rubik-Regular, Rubik"><tspan x="0" y="0">4908</tspan></text>
          <text id="_01_12-2" data-name="01/12" transform="translate(1965 -26)" fill="#fff" font-size="11" font-family="Rubik-Regular, Rubik"><tspan x="0" y="0">01/12</tspan></text>
          <text id="Credit_Card-3" data-name="Credit Card" transform="translate(1761 72)" fill="#fff" font-size="8" font-family="SegoeUI, Segoe UI"><tspan x="0" y="0">Credit Card</tspan></text>
          <circle id="楕円形_7-4" data-name="楕円形 7" cx="1.5" cy="1.5" r="1.5" transform="translate(1943 68)" fill="#fff"/>
          <ellipse id="楕円形_10-3" data-name="楕円形 10" cx="2" cy="1.5" rx="2" ry="1.5" transform="translate(1950 68)" fill="#fff"/>
          <ellipse id="楕円形_8-4" data-name="楕円形 8" cx="2" cy="1.5" rx="2" ry="1.5" transform="translate(1935 68)" fill="#fff"/>
          <circle id="楕円形_9-4" data-name="楕円形 9" cx="1.5" cy="1.5" r="1.5" transform="translate(1928 68)" fill="#fff"/>
          <rect id="長方形_17-4" data-name="長方形 17" width="73" height="5" rx="2.5" transform="translate(1869 -14)" fill="#fff" opacity="0.296"/>
          <rect id="長方形_18-3" data-name="長方形 18" width="43" height="5" rx="2.5" transform="translate(1869 -4)" fill="#fff" opacity="0.296"/>
          <rect id="長方形_19-3" data-name="長方形 19" width="72" height="5" rx="2.5" transform="translate(1869 6)" fill="#fff" opacity="0.296"/>
          <rect id="長方形_20-3" data-name="長方形 20" width="72" height="5" rx="2.5" transform="translate(1869 16)" fill="#fff" opacity="0.296"/>
          <rect id="長方形_21-2" data-name="長方形 21" width="43" height="4" rx="2" transform="translate(1869 27)" fill="#fff" opacity="0.296"/>
          <rect id="長方形_22-2" data-name="長方形 22" width="61" height="4" rx="2" transform="translate(1880 37)" fill="#fff" opacity="0.296"/>
          <rect id="長方形_23-2" data-name="長方形 23" width="101" height="5" rx="2.5" transform="translate(1869 47)" fill="#fff" opacity="0.296"/>
          <path id="Icon_awesome-cc-visa-2" data-name="Icon awesome-cc-visa" d="M21.834,11.507s.353,1.728.432,2.09H20.715c.153-.413.743-2.02.743-2.02s.153-.423.246-.692l.13.622Zm4.919-7.027V20.828a2.23,2.23,0,0,1-2.229,2.229H2.229A2.23,2.23,0,0,1,0,20.828V4.479A2.23,2.23,0,0,1,2.229,2.25H24.523A2.23,2.23,0,0,1,26.753,4.479ZM7.083,16.146l2.935-7.208H8.044L6.219,13.861l-.2-1-.65-3.316a.777.777,0,0,0-.845-.608H1.519l-.033.144a7.37,7.37,0,0,1,1.96.794l1.663,6.27Zm4.384.009,1.17-7.218H10.771L9.6,16.156h1.862Zm6.5-2.359c.009-.822-.492-1.449-1.565-1.965-.655-.33-1.054-.553-1.054-.892.009-.307.339-.622,1.073-.622a3.2,3.2,0,0,1,1.389.274l.167.079L18.23,9.11A4.638,4.638,0,0,0,16.558,8.8c-1.844,0-3.14.985-3.149,2.387-.014,1.036.929,1.612,1.635,1.96s.966.585.966.9c-.009.483-.585.706-1.119.706a3.72,3.72,0,0,1-1.751-.385l-.246-.116-.26,1.621a5.7,5.7,0,0,0,2.081.385C16.674,16.263,17.951,15.292,17.965,13.8Zm6.558,2.359-1.5-7.218H21.574a.919.919,0,0,0-.975.6l-2.773,6.618h1.96s.32-.892.39-1.082h2.4c.056.255.223,1.082.223,1.082Z" transform="translate(1758.125 -37.058)" fill="#fff"/>
        </g>
        <g id="マスクグループ_6" data-name="マスクグループ 6" clip-path="url(#clip-path-6)">
          <path id="パス_655" data-name="パス 655" d="M914,590.142s31.612-35.8,86.1-35.8,69.419,55.479,141.525,39.835,67.755-96.749,147.88-82.294,14.315,118.487,14.315,118.487H908.17Z" transform="translate(2050.49 465.127)" opacity="0.3" fill="url(#linear-gradient-7)"/>
        </g>
      </g>
    </g>
  </g>
</svg>
